<svg id="Layer_1" data-name="Layer 1" xmlns="http://www.w3.org/2000/svg" viewBox="0 0 651.97 651.97"><defs><style>.cls-1{fill:#231f20;}.cls-2,.cls-3,.cls-4{fill:#fff;}.cls-2{fill-rule:evenodd;}.cls-4{font-size:46.51px;font-family:RoxboroughCF-Regular, Roxborough CF;letter-spacing:0.05em;}.cls-5{letter-spacing:0.04em;}.cls-6{letter-spacing:0.03em;}.cls-7{letter-spacing:0.04em;}</style></defs><title>6</title><rect class="cls-1" width="651.97" height="651.97"/><path class="cls-2" d="M425.35,380.2a14.16,14.16,0,0,1,2.12-2.13c.83-.83,1.29-1.7,2.19-2.57A23.48,23.48,0,0,1,425.35,380.2Z" transform="translate(0.6 -0.63)"/><path class="cls-2" d="M455.08,244.86c-.06.16-.33-.87-.51-1.4-.12-.36-.41-1-.56-1.38-.3-.81-.53-1.61-.71-2.12a5.25,5.25,0,0,1-.54-1.38,11.86,11.86,0,0,1,1,2.4l.66,1.86Z" transform="translate(0.6 -0.63)"/><path class="cls-2" d="M398.39,171.83a13.84,13.84,0,0,1,2.43,1.68C399.94,172.91,398.8,172.18,398.39,171.83Z" transform="translate(0.6 -0.63)"/><path class="cls-2" d="M390.09,167c.15.19-2.32-1.09-1.95-1.06A17.65,17.65,0,0,1,390.09,167Z" transform="translate(0.6 -0.63)"/><path class="cls-2" d="M357.46,154.32a13.22,13.22,0,0,1,2.53.54l0,.12A19.14,19.14,0,0,1,357.46,154.32Z" transform="translate(0.6 -0.63)"/><path class="cls-2" d="M293.19,413.79a4.57,4.57,0,0,1-1-.17c-.49-.12-1.05-.29-1.41-.37a3.45,3.45,0,0,1,1.05.19C292.35,413.58,293,413.71,293.19,413.79Z" transform="translate(0.6 -0.63)"/><path class="cls-2" d="M322.33,417c-1,0-1.09-.11-2.12-.11C320.36,416.79,322.79,416.87,322.33,417Z" transform="translate(0.6 -0.63)"/><path class="cls-2" d="M347.61,414.35c-.83.18-.77.07-1.74.29C345.88,414.51,347.92,414.14,347.61,414.35Z" transform="translate(0.6 -0.63)"/><path class="cls-2" d="M235,381.7c.16-.06,1,.74,1.61,1.34A9.09,9.09,0,0,1,235,381.7Z" transform="translate(0.6 -0.63)"/><path class="cls-2" d="M248.34,181.59a14.71,14.71,0,0,1-2.45,1.92,13.46,13.46,0,0,1,1.36-1.06A4.56,4.56,0,0,1,248.34,181.59Z" transform="translate(0.6 -0.63)"/><path class="cls-2" d="M302.85,411.57l2,.33C304.88,412,302.54,411.71,302.85,411.57Z" transform="translate(0.6 -0.63)"/><path class="cls-2" d="M298.09,410.84a21.91,21.91,0,0,1,3.74.57,5.83,5.83,0,0,1-1.5-.15l-1.16-.2Z" transform="translate(0.6 -0.63)"/><path class="cls-2" d="M442.1,242.09c0,.32-.27-.25-.5-.9s-.49-1.34-.38-1.32A23.35,23.35,0,0,1,442.1,242.09Z" transform="translate(0.6 -0.63)"/><path class="cls-2" d="M212.27,347c0-.34.82,1.27,1.06,1.72-.05,0-.22-.22-.43-.55Z" transform="translate(0.6 -0.63)"/><path class="cls-2" d="M412.54,184.21c-.48-.45-1.07-.9-1.66-1.36s-1.2-.94-1.76-1.39l-1.11-1c-1.24-1.08-2.82-2.18-4.2-3.22l-1.95-1.43c-.59-.42-1.12-.74-1.51-1-1.09-.68-1.49-.86-2.23-1.3l-.93-.58c-1.23-.75-1.69-1.12-2.76-1.79-1.58-1-3.73-2.24-6-3.43l-1.59-.91-1.91-1-2-1c-.62-.3-.72-.39-1.31-.67-.35-.17-.85-.37-1-.44-.77-.39-.67-.42-1.29-.71-.08-.05-.78-.28-1-.37a22.57,22.57,0,0,1-2.67-1.23,3.4,3.4,0,0,1-.3-.22c-.22-.11-.76-.3-1-.42s-.59-.34-1-.51a21.75,21.75,0,0,0-2.45-.79c1,.49,2.07.71,3.09,1.15-.14.05,1,.46,1,.55-.74-.24-1.52-.6-2.33-.93s-1.65-.66-2.45-.95-1.44-.43-2.43-.81c0,0-.26-.15-.31-.2-.07-.3,2.49.73,2.55.5a4.08,4.08,0,0,0,1.31.66,11.6,11.6,0,0,1,2.42.89c.44.18.47.15,1,.39s.43.24,1,.46c1.57.66,3.42,1.23,4.77,1.93.77.37,1.23.74,1.95,1s-1.14-.7.4,0a22,22,0,0,1,2.54,1.48,33.86,33.86,0,0,1,3.61,1.82c.53.26.78.33,1.34.63,1.86,1,3.74,2.25,5.64,3.41s3.69,2.51,5.52,3.66c.62.14-2.31-1.58-2-1.61.95.72,2.56,1.73,3.9,2.77.58.41.33.05,1.25.78a12.83,12.83,0,0,0,2.86,2.31c-.11-.22-1.39-1.05-1.41-1.18s.1-.21,1,.5c-.26-.06-.72-.29.45.61s-.73-.84.13-.16l1.42,1.17-.11.13c.68.62,1.27,1,2.05,1.57.36.29,1,.87,1.39,1.2,1.08,1,2.6,2.21,3.91,3.36.41.37.82.74,1.18,1.1l.95.94c.54.51,1.22.81,1.59,1.52-.22-.1-1.24-1.19-1.39-1.2,1.25,1.39,3.38,3.12,4.62,4.73.53.49-.3-.59.65.41,1.06,1.19,2,2.08,3,3.23s1.85,2.22,2.74,3.3c.45.55.9,1.07,1.29,1.58s.76,1,1.1,1.41c.51.63.74.79,1.2,1.4s.91,1.35,1.48,2.12c.36.49.72.92,1.11,1.47.72,1,1.42,2.2,2.09,3-.26-.48-.89-1.39-.68-1.32a15.23,15.23,0,0,1,1.37,2.19c.13.39-1.1-1.34-.14.09.29.45.44.65.62.92.31.47.37.63.57,1,.74,1.14,1.59,2.29,2.59,4,.72.52,2.91,5.37,3.69,6.41a15,15,0,0,0,1.44,3.4c.2.2-.55-1.54.07-.43s.56,1.33.87,2c-.08,0-.48-.89-.47-.6.46.8,1.21,2.93,1.27,2.66s-.82-1.81-.6-1.75a27.52,27.52,0,0,1,1.78,4.47c.28.75.74,1.59,1.14,2.72a19.76,19.76,0,0,0,1,2.77c.28.83.09.7.5,1.78.09-.09.3.47.54,1.16s.42,1.54.57,2c.09.26.21.27.33.67.21.66.44,1.58.71,2.49.2.66.27.77.46,1.4a12,12,0,0,0,.5,1.78c.3.81.61,2.41.93,3.58.08-.07.18-.1.33.3.23,1.71.59,3.13.94,4.72.28,1.37.84,3.8.85,4.36s-.18-.38,0,.75c.28,2.11.81,4.2.92,6.23.11.34,0-1.12.17,0,.3,3.8.67,6.4.8,9.24a21.78,21.78,0,0,0-.07,4.08c.09.35.13-1.11.17,0,0,1.76.09,3.7.07,4.83,0,.52-.1.85-.11,1.48s0,1.26,0,1.86-.13,1.33-.16,1.85c-.06,1.08-.06,1.86-.12,2.6s-.16,1.21-.25,1.84c-.15,1.12-.34,2.58-.45,3.68-.11.86,0,1.47-.16,2.61a13.08,13.08,0,0,0-.32,1.45,2.31,2.31,0,0,1-.06,1.12c-.15,1.09-.54,3.74-.64,4-.12.58-.39,1.6-.51,2.17s-.14,1-.23,1.48-.16.55-.27,1.08l-.27,1.25-.39,1.56-.76,3c-.12.45-.42,1.9-.4,1.82-.08.35-.18.43-.26.71-.58,1.93-1.21,4.24-1.81,6.06-.19.5-.3.62-.56,1.38,0,.11-.13.57-.18.73-.13.4-.41,1-.52,1.39s-.17.72-.28,1.1a12.87,12.87,0,0,1-.47,1.44c-.17.45-.4.92-.74,1.69l-1.61,3.77c-.11,0,.08-.42,0-.41-.45.93-.4,1.17-.85,2.07-.36.73-.52.86-.89,1.64s-.25.63-.58,1.38c-.17.38-1,1.93-.74,1.71.64-1.31,1.3-2.63,1.87-3.65.24-.43.87-1.7.77-1.3-.34.71-.59,1.17-.85,1.67-.76,1.43-.76,1.44-1.35,2.67a5.5,5.5,0,0,0-.37.65,12.55,12.55,0,0,1-1.09,1.95c-.22.51-.14.59-.35,1.08a31.75,31.75,0,0,0-1.76,3.3c-.32.53-.56.78-.82,1.26-.45.8-.45,1.08-1,2-.84,1.31-1.25,1.54-.48.14a25.31,25.31,0,0,0,2.47-4.18c-1.12,1.81-2.47,4-2.89,4.8-.65,1.18-.32.83-1,2-.13.23-.72,1.13-.8,1.26a4.18,4.18,0,0,1-.64.93c0-.19,1.38-2.24.67-1.35-.89,1.34-1,1.65-1.54,2.57-1.08,1.77-2.68,3.67-4,5.44-.3.4-.51.81-.83,1.25s-1,1.13-1.45,1.72c-.64.8-1.42,1.76-1.3,1.83a17.68,17.68,0,0,0,1.5-1.68c.07-.08.2-.12.3-.24.69-.83.61-.9,1.31-1.83a28,28,0,0,0,2.73-3.57c.19-.26.45-.58.7-.9s.47-.65.65-.91c.69-1,1.41-2.11,2.14-3.22.36-.56.74-1.11,1.09-1.68l1-1.71c.35-.57.64-.95,1-1.58.49-.81.86-1.53,1.3-2.28l1.44-2.62c.36-.69.69-1.37,1-2s.66-1.32,1-2c.17-.36.39-.71.69-1.32.58-1.17,1.31-2.61,2-4.09s1.32-3.06,1.87-4.42c.38-.93.62-1.58.91-2.45.43-1.17.89-2.42,1.33-3.64l.65-1.77.52-1.64c.17-.53.44-1.21.61-1.76.23-.76.31-1.36.56-2.18l.3-.91.36-1.23c.51-1.88.86-3.4,1.11-4.34a13.51,13.51,0,0,0,.39-1.44l.55-2.94c.25-1.28.6-2.45.79-3.65.09-.6.12-1.18.22-1.86.28-2,.8-4.49.92-6.28.07-.74.05-1.12.13-1.86.15-1.53.39-2.84.46-4.45.07-1.12.13-2.37.18-3.51l.07-1.59c0-.48,0-.9,0-1.23,0-.52.06-1.35.06-1.87s-.09-.41-.11-1.12l0-1.49c0-.83.07-1.36,0-2.24-.11-2.34-.28-4.76-.38-6.32-.19-2-.22-2.92-.33-3.71-.21-1.41-.22-2.86-.48-4.43-.13-1-.4-2.25-.54-3.31-.08-.53-.05-.67-.17-1.48-.18-1.24-.53-2.52-.71-3.65-.09-.52-.19-1.44-.27-1.84,0,.05-.29-.95-.41-1.43-.16-.82-.47-1.95-.62-2.53s-.27-.8-.44-1.42l-.78-3c-.27-1.08-.64-2.15-.89-3.05-.22-.73-.26-1-.5-1.79-.4-1.21-.77-2.3-1.24-3.5-.37-1-.61-1.83-1-2.82l-1-2.65-1.11-2.59-1.11-2.56-.54-1.25-.59-1.22c.2.1,0-.37-.48-1.41-.51-.88.37,1.26-.39-.23-.37-.92-.67-1.58-1-2.18a18.53,18.53,0,0,0-1-1.83c-.87-1.48-1.88-3.39-2.71-4.86-.29-.53-.54-.76-.83-1.24s-.62-1.14-.92-1.61-.56-.78-.84-1.23-.36-.75-.69-1.31-.67-.78-1.08-1.52c-.69-1.14-.53-1.18-1.48-2.58-.72-.85.46.82.24.73-1-1.5-2.06-3.13-3.19-4.55-.37-.49-.78-.93-1.18-1.44L432,202.29l-.56-.76-.58-.7c-1-1.12-1.75-1.92-2.46-2.78-.34-.4-1-1.35-1.4-1.73-.68-.72-1.13-1.07-1.84-1.84-.52-.56-1.14-1.37-1.68-2-.29-.31-.82-.81-1.33-1.29s-1-1.06-1.28-1.34-.52-.42-.85-.72c-.52-.47-1.22-1.15-1.95-1.85s-1.52-1.36-2.12-1.93-.6-.6-1.07-1-.94-.75-1.43-1.18-.94-.85-1.41-1.2-1-.69-1.48-1.11l-2.45-2c-.89-.71-1.73-1.29-1.92-1.44s-.39-.36-.56-.48c-.91-.63-1.18-.72-1.86-1.22-.53-.39-1.18-1-1.74-1.38s-1.08-.62-1.91-1.13c-1.61-1-3.15-2-3.29-2.41-.91-.52-1.95-1.22-2.85-1.72-.68-.39-.86-.38-1.35-.63L386.09,165c-.41-.21-.42-.31-1-.56a5.29,5.29,0,0,1-.7-.24,3.12,3.12,0,0,0-.3-.24c-1.25-.69-2.86-1.24-3.71-1.65a18,18,0,0,0-2.32-1.14c-.52-.16-1.08-.58-1.38-.54.41.18.8.36.65.37a18.42,18.42,0,0,1-2.41-.94,16,16,0,0,0-1.7-.71c-.44-.17-.46-.23-1-.43s-.7-.18-1.42-.43-1.63-.67-2.41-.94c-.45-.15-.48-.13-1.05-.34-.75-.27-1.36-.5-2.09-.72a19,19,0,0,1-2.84-.81c-.08-.14,2,.66,1.44.32-1.13-.42-1.34-.41-2.81-.88.11.11-.08.09-.34,0l-.78-.17a20.47,20.47,0,0,1-2.17-.45c-.59-.15-1.27-.38-1.77-.5-.93-.24-2-.42-2.89-.58s-1.44-.39-2.15-.54-2.07-.42-2.53-.49c-.65-.11-.72-.05-1.47-.15-1.16-.16-2.35-.38-3.52-.57a26.21,26.21,0,0,0-3.4-.41A3.88,3.88,0,0,0,339,151a35.12,35.12,0,0,1-5.15-.33l-2.2-.18-1.1,0c-.77,0-1.6-.07-2.42-.11s-1.63,0-2.36-.05a15.62,15.62,0,0,1-3.31,0c.64,0,2,0,1.84-.1l-3.6,0c-1.17,0-2.31.08-3.39.17-.74.06-1.06.15-1.83.19s-.88,0-1.47,0c-2.23.17-2.7.3-4,.44-.42.05-.53,0-1.1.06s-1.39.11-2.07.22l-1.57.24c-.19,0,0,.11-.35.18a14.4,14.4,0,0,0-2.17.38,10.64,10.64,0,0,0-2.56.25c-.16.14,1.27-.09.4.14l-4.4.9-2.22.43c-.76.15-1.53.37-2.34.56l-2.48.64-.34,0-.39.06c-1.34.36-1.38.49-2.43.81-.49,0-2.72.82-2.84.71a11.29,11.29,0,0,1-2.45.9c-1.22.38-2.64.89-3.76,1.3s-2,.82-2.71,1.1a14.62,14.62,0,0,0-1.38.49c-.57.25-1.08.52-1.66.77s-1.05.39-1.36.52-1.19.57-1.66.77c-1.26.53-2.47,1.12-3.65,1.68L260.88,166c-.56.29-1.12.5-1.65.78.15,0,.77-.21-.22.36a16.73,16.73,0,0,0-2.68,1.19c-.83.48.82-.22-.54.52s-2.6,1.51-3.78,2.24-2.29,1.43-3.35,2.15c-.48.31-.33.09-.68.3s-.8.59-1.49,1c-1.26.83-.59.27-1.56.95s-1,.87-2.27,1.84c-.46.32-.26.06-.66.33l-2,1.55c-.83.69-.35.56-1.32,1.27-1.18,1-.47.13-1.51,1-.41.48.42-.15-.15.4-.88.68-.78.73-1.66,1.41l-.11-.13c-1.12.95-1.75,1.46-3.28,2.87,1-.53-1.55,1.52-2,2.16a14.12,14.12,0,0,0-1.72,1.36,24.45,24.45,0,0,1-1.68,1.91c-.55.55-.9.77-1.64,1.45s-1.9,2.06-2,2.14c-.27.37-.79,1-1.13,1.42s-.81.85-1.25,1.3a11.58,11.58,0,0,0-1.17,1.4c-.63.73.39-.11-.57.94-.5.61-.22,0-.39.15a33.4,33.4,0,0,0-2.21,2.88c-.3.4-.76.93-1.13,1.42-.62.83-1.07,1.56-1.92,2.63-.15.32.76-.78.13.1L212,209.22c-.44.59-.88,1.19-1.39,1.94s-.84,1.44-1.32,2.17c-.81,1.28-2,3-2.39,3.62s-.82,1.35-1.23,2l-1.1,2c-.41.74-.87,1.49-1.25,2.2-.17.31-.51,1.08-.63,1.31-.41.85-.95,1.94-1.54,3.13l-.91,1.83c-.3.62-.61,1.25-.85,1.88s-.49,1.33-.78,2-.57,1.38-.88,2.11l-.46,1.1-.42,1.11c-.54,1.47-1,2.83-1.43,3.75-.19.49-.37.78-.57,1.33s-.2.78-.4,1.39c-.3.9-.77,2-.89,2.38-.4,1.12-.79,2.39-1,3.1a34.41,34.41,0,0,0-1.56,5.58c.11-.44.23-.7.29-.67-.1.73-.37,1.38-.43,2.12.2.06.52-1.1.68-.58-.1.7-.09,1.11-.29,2.15.11.31.43-1.67.54-1.36-.29,1.15-.55,2.35-.75,3.51.1.2.41-.61,0,1.47.1.08.51-1.53.43-.65a14.24,14.24,0,0,0-.41,2.83c-.12.89-.26,1.79-.41,2.68l-.22,1.35-.16,1.34c-.22,1.79-.44,3.56-.65,5.25-.08,1.16-.12,2.19-.2,3.21,0,.47-.11.71-.15,1.06-.06.7-.15,1.77-.18,2.5-.07,2.13-.09,2.77-.05,3.93s.05,1.63.1,2.15.05.65.14.71.1-.18.12-.44a2.48,2.48,0,0,1,.12-.63c.06,0,0,1,.09,1.06,0-1.7.23-.4.32-.71s.21-1.52.27-1.78.1,0,.13-.35c.11-1.13.07-3.05.16-4.6,0-.46.12-.72.15-1.05a12.8,12.8,0,0,1,.35-2.82c.09.15.06,1.06.18,1.08.12-.71.24-1.35.34-2.06,0-.35.09-.73.13-1.14s.12-.85.17-1.34c.27-.64.33-.17.27.7s-.14,2.18-.28,3.17a28.94,28.94,0,0,1,0,3.51c0,.89.24-.72.22.71-.14,1.66-.1,3.1-.1,4.55,0,.59,0,1.18,0,1.76s0,1.16,0,1.73c0,.85.14,1.61.18,2.45,0,.47,0,1.21,0,1.75s.13,1.06.15,1.39c0,.58.06,1.15.11,1.75.15,1.45.34,4,.68,5.9l.23,1.38c.1.73.07,1.12.16,1.74.05.35.2.8.28,1.38s.2,1.25.29,1.72c.35,1.68.73,3.19,1,4.79.13-1-.66-3.77-1-5.5a12.22,12.22,0,0,1-.18-1.75c-.12-1.36-.34-2.91-.46-4.16-.1-.66-.07.62-.26-.67s-.21-1.9-.28-2.6-.13-1.4-.24-2.61h.17c-.08-1.44-.21-1.35-.3-2.43a15.72,15.72,0,0,0,0-3.14l-.07-2.63a17.68,17.68,0,0,1,0-1.9,21.37,21.37,0,0,0,0-2.78c0-1,0-1.59,0-2.44.17.31.18-.73.26-1.38l.12-.69c.09-.65.18-1.19.24-1.73.07-.71.07-1.44.13-2.08a6.85,6.85,0,0,1,.18-1,9,9,0,0,1,.2-1c0-.15,0,.38,0,.35s.12-.6.16-.68.18.07.29-.31.18-1.37.39-2.39c.12-.54.3-.81.45-1.34.06-.24.22-1.09.3-1.35s0,.4,0,.35a8.2,8.2,0,0,0,.22-1.36c0-.12,0,.39,0,.36l.21-1c0-.18.1-.5.15-.67s.16-.25.18-.32c.12-.55.13-1.11.18-1.36a7.36,7.36,0,0,0,.25-1c.09-.41.07-.74.21-1.36,0-.06.17-.43.23-.66.13-.51.23-1.16.36-1.67.18-.75.24-.67.36-1.33,0,0,0-.28,0-.35,0-.34.28-1,.33-1.34s-.13-.18.07-1c.3-1.36.16-.57.14-1a6.16,6.16,0,0,1,.14-.68c0-.14-.17.11-.25.29.2-.92.25-1.46.46-2.38-.11-.09-.44.73-.33-.09.26-.61.74-2.11.94-2.61.06-.14.17-.17.23-.3.12-.32.29-.95.42-1.31s.18-.37.39-1l.44-1.28.51-1.32c.05-.14,0-.43.12-.69s.52-1.1.65-1.6c.18-.7.13-1,.33-1.73a9.23,9.23,0,0,1,.39-1,11.06,11.06,0,0,1,.39-1.34c.29-.74.69-1.42,1-2.2.22-.47.47-1.22.8-1.92.6-1.26,1.58-3.23,1.86-3.73s.25-.53.3-.62c.43-.83.54-1,.86-1.51s.33-.7.63-1.23l1.87-3.33c.23-.41.53-.75.78-1.15.95-1.43,1.47-2.44,2-3.23l.59-.89c.29-.43.61-.83.59-.82.34-.5.48-.89,1.1-1.76s1-1.35,1.42-1.86.76-.94,1.15-1.41.63-.9,1-1.41c.57-.75,1.15-1.44,1.69-2.19l.48-.68.57-.76a10.25,10.25,0,0,1,1.1-1.27c.55-.48,1.86-2.37,2.64-3.2.48-.51.55-.52,1-1,1.16-1.16,1.37-1.54,2.07-2.33l.72-.8.67-.65,1.17-1.07c.72-.64,1.38-1.21,2.18-2,.59-.63,1.11-1.21,1.69-1.74s1.11-.87,1.63-1.3,1-.84,1.58-1.38,1.3-1,1.87-1.49,1.14-.78,1.69-1.22.93-.81,1.58-1.34l1.69-1.2c.7-.55.07-.19.78-.69s2.08-1.75,2.69-2.17a7.65,7.65,0,0,0,1.47-.93c-.06.11-.37.34-.2.33.47-.32.92-.49,1.51-.86s1.38-1,2.28-1.56a7.28,7.28,0,0,0,1.46-.93,16,16,0,0,0,1.54-.78c-.09-.06-.63.23.21-.32a11.25,11.25,0,0,0,1.86-1c.7-.43,1.47-.84,2.09-1.18,1.79-.92,3.8-1.92,6.19-3.06a17.11,17.11,0,0,1,2.73-1.51c0,.07-.79.4-.58.41,1.46-.66,2.06-.92,2.49-1.15a11.46,11.46,0,0,1,1.58-.78c.31,0-.64.36-.59.38s1.1-.45,1-.28c-1.15.51-3.51,1.5-4.09,1.83-.4.19-.47.16-1,.4s-.73.43-1.21.67l-2.49,1.16c-.84.42-1.67.87-2.45,1.31-.54.3-.95.59-1.48.88-.92.5-1.83.89-2.73,1.47-1.7,1.08-4.41,2.57-6.14,3.84-.3.21-.72.56-1.1.83-.71.52-1.47,1-2,1.37s-.79.72-1.32,1.12a2.69,2.69,0,0,0-.32.13,6.81,6.81,0,0,0-.53.45c1.15-.53-1,1.1-.78,1.25,1.26-.93,2-1.39,3.36-2.37.71-.49,1.19-.9,2-1.4.48-.32.93-.55,1.47-.88,1-.58,1.2-.81,1.71-1.13s.43-.2.91-.49l2.33-1.44c.51-.3,1.4-.91,2.31-1.41s1.77-1,2.13-1.17,1.33-.61,1.85-.89,1.08-.68,1.48-.86c1-.5,2.53-1.24,3.4-1.64.58-.28,1.07-.46,1.57-.7s1-.48,1.54-.74c1.14-.5,2.63-1.1,4.25-1.75s3.41-1.19,5-1.8c.57-.21,1.13-.45,1.68-.63s1.07-.36,1.57-.51l4.29-1.23c1.3-.33,2.35-.7,3.64-1,.53-.14,1.13-.26,1.76-.4s1.28-.27,1.94-.38c1.45-.26,3-.56,4.39-.83l1.27-.25,1.09-.15,2.05-.28c1.11-.15,2.33-.39,3.4-.51.62,0,1.44,0,2.07-.1s1.44-.26,2.38-.33a6.46,6.46,0,0,0,1-.05c.76,0-.29.16.36.17,1.47-.06.59-.23,1.7-.29.83,0,1.58-.08,2.06-.08s.1.16,1,.09c1.35-.07-.26-.12.68-.19s2.61-.05,4.12,0c.69,0,.91.12,1.72.14.39,0,.51,0,1,0s1.37.08,1.71.1c.79.05,1.29,0,2.06.09.5,0,.1.05.34.1a18.13,18.13,0,0,0,3.06.21c1.08.06,2.07.09,2.42.17s-.78,0-.69,0a11.86,11.86,0,0,1,2.73.26,10.39,10.39,0,0,0-1.37-.11,27.62,27.62,0,0,0,3.43.23c.8.11,2.13.34,3.39.55l2.37.4,2,.45c.63.15,1,.36,1.64.52l2,.47c.77.17,1.45.38,1.63.42.47.12.58.07,1,.18a4.44,4.44,0,0,0,.65.25,5.17,5.17,0,0,1,.68.1c.45.12.62.23,1.32.38a25,25,0,0,1,4.62,1.32c2.4.7,4.86,1.7,7.13,2.51,1.14.4,2.18.9,3.14,1.3l2.53,1.1c0,.08-.1.12.58.38.48.15-.09-.14.37,0s1.9.86,2.49,1.15c.44.22.08.1.27.23a22.13,22.13,0,0,0,2,1c.82.36,1.55.76,1.68.82s.65.44.87.57c1.73,1,2.53,1.27,3.65,1.89.41.25.93.65,1.42,1,.31.19.93.52,1.49.85.37.22.39.29.86.57s.58.31,1.19.67.61.46,1.12.8.54.3,1.16.73c.82.57,1.23.92,1.94,1.41.45.3,1,.62,1.43.94s.88.79,1.3,1.12.95.7,1.37,1c.75.57,1.7,1.33,2.39,1.94.49.41.6.44,1.08.83,1.08.92,2.72,2.21,4.14,3.57,1,.91,2,1.81,2.76,2.55,1.09,1,1.69,1.56,2.23,2.12s.74,1,1.33,1.56c.42.44,1.23,1.1,1.72,1.65.27.29.31.41.66.79s.49.44.95,1c.32.38,0,.08.17.31.33.52,1.78,1.89,2.26,2.54.76.92,1.57,1.95,2.35,2.93.38.49.78,1,1.11,1.43l.93,1.29c.32.44.72.94,1,1.37s.43.68.75,1.14c.79,1,1.55,2.2,2,2.78.09.13.2.39.53.87s.63.84,1,1.39.69,1.2,1,1.78.65.89,1.09,1.72c.62,1.17.92,1.45,1.44,2.31a10.71,10.71,0,0,1,.6,1.22c.23.44.58,1,.84,1.47,1.21,2.21,1.18,2.35,1.81,3.65.12.29.37.69.62,1.21.35.73.62,1.44.84,1.86s.39.63.65,1.19l.55,1.18.55,1.39c.37,1,.76,2,1.1,2.77a14.38,14.38,0,0,1,.73,1.9,31.36,31.36,0,0,0,1.55,4.48c.21.78.22,1,.4,1.65.52,1.89,1.67,4.28,1.64,5.17-.25-.73-.69-2.55-.77-2.25l.88,2.89.68,2.68.59,2.43.25,1.11c.07.37.12.72.17,1.07-.07.15-.27-1.52-.31-1,.12,1.1.69,3.57.71,4.34.35.41.48,2.53.65,3.31,0-1.08.25,1.93.46,2.67-.11-.09-.26-.63-.24,0l.36,2.18c.1.7.16,1.35.24,1.83s.12,0,.21,1c0,.85,0,1,.1,2,0,.61.14,1.3.18,1.88a4.2,4.2,0,0,1,0,1.16c-.11,0-.11-1.31-.22-1.34,0,1.06,0,2.91,0,4.05,0,.59.16.72.22,1.34l.05.81v2.56c0,.07-.11-.71-.12-.67a6.57,6.57,0,0,0,0,1.35c0,.17-.15.17-.17.33s0,1-.06,1.35c0,1,.26,1.41.11,2-.06,0,0-.59,0-.67-.17,1.43-.33,2.8-.44,5,.13.5.1-1.5.23-1,0,1.51-.18,1-.25,2.35-.13.57-.1-.51-.28,1-.1.77.08.38,0,1a4.8,4.8,0,0,0-.16,1.34c-.05.55-.17,1.15-.22,1.67,0,.06,0,.44,0,.68a7,7,0,0,1-.25,1.32c-.08-.05.23-1.41.25-2a3.43,3.43,0,0,0-.23.84c-.08.36-.16.81-.24,1.28-.15.95-.28,2-.43,2.85s-.33,1.47-.52,2.29c-.14.58-.14.77-.25,1.32-.35,1.77-.41,2.11-.62,3.31a38.37,38.37,0,0,0-1.16,4.21c-.07.24-.31.87-.42,1.28s-.22.79-.32,1.18-.23.75-.34,1.07l-.49,1.26a18.19,18.19,0,0,1-1,2.84c-.12.17-.67,1.87-.79,2.21-.22.59-.31.68-.51,1.24s-.11.45-.31,1-.31.62-.55,1.23a2.67,2.67,0,0,1-.2.63c-.59,1.31-1.5,3.34-2.19,4.9-.07.19,0,.12,0,.2s0,.32-.45,1.09.3-.79.1-.69c-.77,1.7-1.29,2.51-1.69,3.28-.19.37-.15.44-.4.92s-.42.73-.67,1.16c-.88,1.51-2.07,3.57-2.81,5-.53.88-1,1.82-1.47,2.64s-1.08,1.77-1.64,2.63-1.2,1.69-1.85,2.69l-.18-.12a6.83,6.83,0,0,0-.83,1.46c-.22.07-.47.44-.83.91s-.78,1.1-1.25,1.72l-.64.77c-.62.75-1.32,1.73-1.82,2.39s.47-.75-.17-.12c-.81,1-1.67,2-2.56,3.08a17.91,17.91,0,0,1-1.27,1.55c-.69.73-1.48,1.41-2.15,2.11-.45.47-1.06,1.23-1.54,1.76-1.28,1.25-2.91,2.72-4.63,4.34-1.5,1.3-3.1,2.82-4.49,4-1.26,1-2.54,1.87-3.72,2.82-.41.34-.79.76-1.26,1.1-1.16.88-2.07,1.5-2.92,2.06s-1.63,1.08-2.59,1.68l-1.38.92c-.37.23-.84.46-.88.49-.54.36-1.07.82-1.61,1.18s-.76.29-1.52.71c-.48.26-1.2.77-1.69,1.06-1,.6-2.25,1.24-2.93,1.56-.3.15-.33.22-.57.35l-2.66,1.37c-.43.22-.89.43-1.35.64s-.93.39-1.37.59l-2.11,1c-.46.2-.84.31-1.23.49s-1,.54-1.19.59l-1.26.42-.63.22s-.53.12-.34.05c-.38.14-.77.36-1.52.67s-1.15.42-1.55.59c-.62.26-1.21.53-1.84.75-1.37.46-2.33.6-3.21.87-.42.13-.85.29-1.33.43l-1.51.45-3.49,1.07c-.57.18-1.17.33-1.78.46l-1.81.41-3.5.81c-1.35.25-3,.65-4.22.88l-1.64.31c-.57.1-1.16.15-1.75.23l-3.5.42c-1.12.17-2.19.23-3.09.33a19.75,19.75,0,0,0-2.17.33c.27-.06,0,.16,0,.17a5.27,5.27,0,0,0-.65.22s.3.09.34.18c.12.25-.52.2.69.27a23.09,23.09,0,0,0,3,0,7.63,7.63,0,0,0,1.67-.11.64.64,0,0,1,.34,0c.48-.06,1.34-.2,2-.27.47-.05,1-.06,1.34-.11,0,0,.85-.16,1.32-.22.79-.09,1.55-.18,2.33-.3.59-.09,1.42-.28,2-.38.76-.12,1.51-.22,2.23-.32s1.4-.26,2.07-.42c.47-.12.58-.21,1.29-.36s1.7-.28,3-.55c.8-.2,1.88-.59,2.91-.86.68-.18,1.16-.26,1.63-.4.85-.25,1.46-.49,1.92-.62s.87-.18,1.32-.29c1-.41,2.19-.83,3.16-1.16.39-.14,1-.27,1.29-.37.6-.23.68-.33,1.23-.55.74-.29.58-.12,1.29-.4a15,15,0,0,1,2.81-1.15c.36-.11,1.39-.69,1.24-.5-.74.34-1.62.6-1.51.75a13.66,13.66,0,0,0,1.8-.85c.45-.25.81-.47,1.2-.7a16.6,16.6,0,0,0,2.17-.92,10.74,10.74,0,0,0,1.29-.43c1.41-.7,2.88-1.71,3.87-2.05.16,0-1.37.7-.83.58.75-.4.9-.61,1.72-1.06.23-.13.54-.26.86-.42s.65-.34.94-.51c.46-.26,1-.65,1.42-.9.08,0,.71-.33.91-.45a10.21,10.21,0,0,1,1.19-.65c0,.12-1.06.68-1.1.8.77-.5,1.7-1,2.44-1.48s1.36-.88,1.56-1.05a4.36,4.36,0,0,1,.53-.41,16.77,16.77,0,0,1,1.74-1.15,12,12,0,0,0,1.65-1.07c.52-.39,1-.79,1.33-1a14.84,14.84,0,0,0,2.25-1.5c-.27.2-.38.19-.05-.07a18.53,18.53,0,0,0,1.72-1.1c1-.75,1.85-1.6,2.85-2.38.69-.55.87-.51,1.65-1.2l1.23-1.16a4.55,4.55,0,0,1,1-.91c.19,0-.91.87-.92,1,.79-.67,1.71-1.49,2.55-2.23s1.52-1.48,2-1.86c.49-.58-.37.23.16-.33.72-.76,2.65-2.51,2.9-2.84a3.26,3.26,0,0,1,.43-.53c.36-.38.56-.51,1-.95.88-1,1.9-2.06,2.7-3,.37-.42.24-.17.72-.73s1-1.28,1.58-1.93,1.06-1.25,1.48-1.7c0,0-.32.5-.34.59a55,55,0,0,0,3.57-4.54c.19-.27.27-.6.47-.91s.83-1.15,1.18-1.66a16.86,16.86,0,0,1,1.18-1.66c.22,0-.7,1.27-.74,1.54a12.51,12.51,0,0,0,1.35-2.36,22.22,22.22,0,0,1,1.92-2.81c.57-.87,1.11-1.88,1.65-2.58-.58,1.19-2,3.35-3,5-.07,0-.09-.12-.46.51s-.18.45-.47.91-.73,1.05-1.34,1.89l-1,1.35c-.33.49-.68,1-1,1.45-.55.74-.79,1.13-1.2,1.66s-.77.91-1.08,1.31l-.93,1.17c-.34.4-.65.76-.79.94a17,17,0,0,1-1,1.39c-.56.7-.29.1-1,1a8.56,8.56,0,0,1-1.28,1.61c-.56.56-1.2,1.18-1.87,2,0-.05.25-.36.14-.33l-1.51,1.76-.7.82c-.24.26-.48.5-.71.73-.92.92-.77.65-1.27,1.14a13.64,13.64,0,0,1-.94,1c-.46.43-.75.58-1.29,1.11a7,7,0,0,1-.52.5l-.47.42c-.85.79-1.76,1.81-2.67,2.63-.17.15-.69.53-1.06.85-1.48,1.13-2.4,1.92-3.43,2.8-.17,0,.7-.8-.36.08-1.24,1-.27.43-.69.78-1,.58-2.13,1.55-3.29,2.41-.42.3-.6.35-1.14.74a5.46,5.46,0,0,1-.53.44c-.37.29-.64.39-.86.55-.71.47-1.35,1-2,1.35-.3.2-.7.37-.89.49-.71.47-1.29.9-1.87,1.29s-1.17.74-1.84,1.11-.9.4-1.53.76c-.78.43-1.54.95-2.39,1.4l-2.63,1.44c-.3.17-.37.16-.62.29s-.39.26-.88.51c-.93.53-2.24,1.07-3.49,1.67s-2.45,1.15-3.27,1.51c-.14.05-.64.32-1.25.55s-.26,0-1,.31-1.37.65-2.17,1c-.36.14-1,.35-1.61.55-1.43.48-3.41,1.24-4.49,1.59-.48.15-.77.19-1.3.37s-1.27.45-1.94.66a11.07,11.07,0,0,1-1.65.4c-.45.12-1.16.39-1.62.53l-.51.13c-.28.08-.62.15-.81.19-1.65.35-1.8.41-1.69.24a45.57,45.57,0,0,1-6.59,1.64c-.38.07-.16,0-.34,0-.63,0-2.34.43-3.35.6-1.22.16-2.09.08-3.38.31-.12.09.51,0,0,.12-.65.12-1.42.21-2.19.3l-1.13.13-1.06.08c-.62.06-1.39.24-2,.31l-2.71.19-5.43.23c-.53,0-1.19,0-1.7,0s-1.18,0-1.69,0-1.19-.06-1.7-.07-.77,0-1.36,0l-1-.05-1-.1c-.4,0-.69,0-1.36,0l-2-.17c-1-.07-1.84,0-2.71-.16s-2-.3-3-.42c-.8-.1-1.59-.16-2.37-.24s-1.56-.22-2.33-.36c-.44-.08-.46-.12-1-.21s-1.15-.13-1.68-.23c-.18,0-.66-.18-1-.24-1-.2-2.25-.34-3-.51a13.39,13.39,0,0,0-2.64-.64c-1.76-.43-3.06-.8-4.26-1.1-2.08-.49-4.37-1.42-6.46-2.06-1.47-.45-2.08-.7-3.19-1.11-1.29-.49-2.47-.87-3.83-1.37-2-.89-4.13-1.74-6.17-2.69l-3.05-1.48-1.55-.73c-.51-.24-1-.52-1.52-.78a5,5,0,0,0,1.07.71c.51.28,1,.53.92.6a25.62,25.62,0,0,1-3.3-1.74c-.77-.54.29,0,.42-.06-1.29-.81-3.09-1.64-4.41-2.52-.39-.24-.77-.56-1.12-.77L257,393c-.66-.35-1.37-.79-2-1.2s-1.25-.86-1.69-1.15l-2.33-1.54-1.25-.84-1.16-.87c-.54-.42-.78-.71-1.55-1.32.06.05-.74-.49-1.11-.77-.62-.49-.93-.78-1.3-1.09a7,7,0,0,0-1.41-.94c.52.57,1.77,1.36,1.79,1.56-1.48-1.13-2.71-2.21-3.67-3-.61-.51-1.28-1-1.58-1.27s-.84-.9-1.18-1.23c-.55-.53-1.25-1.17-1.9-1.75s-1.25-1.11-1.58-1.45c-1.6-1.56-4-4.06-4.77-4.79-.34-.3-.75-.61-1-.89A26.82,26.82,0,0,1,227,368c-.53-.67-1.09-1.23-1.53-1.8a1.91,1.91,0,0,0-.1-.21.73.73,0,0,0-.3-.33,2.25,2.25,0,0,1,.36.57c-.87-1.08-1.84-2.37-.91-1.43-.73-1-1.2-1.07-1.66-1.71,0,0-1-1.66-.61-1.24a11.09,11.09,0,0,1,.95,1.41c0-.33-1.49-2.27-2.53-3.59-.34-.45-.76-.85-1.11-1.29-.48-.66-.69-1.07-1-1.38-.32-.16,1.23,1.86,1,1.78-.61-.95-1.39-2.09-2.14-3.16a18.22,18.22,0,0,1-1.73-2.79,5,5,0,0,0,.79,1.09c-1.08-1.56-1.8-3.16-2.33-3.72.27.69,1.17,1.75,1.15,2.07-.28-.43-.6-.89-.95-1.41s-.94-1.53-1-1.38a21.54,21.54,0,0,0,1.82,2.85,8.37,8.37,0,0,0,.86,1.6l1.28,1.86c.67,1,1.34,2,1.9,2.81.41.57.36.37.87,1s.45.73.95,1.4c1,1.3,1.83,2.45,2.93,3.73l2.35,2.88.57.69.61.67,1.29,1.44c.61.67,1.27,1.4,1.9,2.11s1.3,1.31,1.84,1.83.86.74,1.26,1.13.93,1,1.38,1.5c.76.72,1.75,1.62,2.51,2.28.57.48.78.58,1.32,1.07s.88.9,1.48,1.4c1.61,1.35,3.6,2.94,4.46,3.66a11,11,0,0,0,1.33,1.05c.53.38.58.48,1.07.85l1.65,1.2c.58.41,1.19.78,1.69,1.13s1,.72,1.39,1,.75.42,1.17.69.83.64,1.4,1c1.35.8,3.11,1.78,3.82,2.22.43.26.92.7,1.41,1,1,.6,1.85,1,2.67,1.49-.76-.29.06.17.54.44a13.28,13.28,0,0,0,1.57.78c.35.13.64.22,1.22.48s1.2.62,1.82.92c.42.2.7.25,1.26.51.37.18,1.38.73,2.15,1s2.16.9,2.82,1.2.89.47,1.53.74c1.14.46,2.45.85,3.54,1.24.77.26,2,.68,2.56.9l.3.18c.89.42,3.45,1.09,5.19,1.64,1,.3,3.29.87,5.38,1.44,1,.31,2.08.48,2.89.68s1.41.33,1.63.39a16.87,16.87,0,0,0,2.68.51c1.12.16,2.41.38,3.77.62.69.12,1.39.26,2.11.37l2.19.28,2.41.29c.81.1,1.6.2,2.33.23,1.27.08,2.59.11,3.74.19.47,0,.92.08,1.37.12s.89.06,1.35.07c1.59,0,3.12,0,4.09.05.39,0,.7.06,1,.1a7.05,7.05,0,0,0,1,0,30.12,30.12,0,0,1,4.77-.26c.66,0,1.08-.12,1.7-.17,1.15-.09,2.36-.15,3.4-.26.58-.06.81-.12,1.36-.16.33,0,1.2-.05,1.36-.08s-.07,0,.33-.09a15.48,15.48,0,0,0,2-.2c.67-.12-.24-.21,1-.34a3.44,3.44,0,0,1,.69,0,1.88,1.88,0,0,0,.69,0,13.2,13.2,0,0,0,2-.33c.71-.16,1.48-.34,2.35-.5.53-.1,1.34-.18,2-.3.28-.05.53-.11.8-.18l.86-.23c1.41-.34,3.22-.7,5-1.13.95-.23,1.74-.56,2.61-.79.7-.2,1.27-.31,2-.51l1.86-.53c.66-.2,1.33-.45,2-.68,1.31-.46,2.52-.9,3.27-1.19a7.12,7.12,0,0,1,.93-.41c.83-.35.31.05,1.31-.4s.93-.49,1.86-.86a24.65,24.65,0,0,0,4.44-1.78l3.81-1.79c1.31-.67,2.56-1.36,3.52-1.86.51-.28,1.2-.59,1.83-.93s1.1-.69,1.45-.89c.88-.51,1.77-.93,2.7-1.47,1.51-.82,3.14-2,4.89-3.14.84-.55,1.55-.92,2.31-1.46s1.55-1.19,2.45-1.86,1.71-1.22,1.94-1.39c.55-.42.84-.79,1.29-1.14,1.4-1.13,2.56-1.92,3.51-2.71.34-.27.86-.88,1.22-1.2.67-.59,1.34-1.07,2.12-1.74,1.47-1.18,3.2-3,4.73-4.44l1.18-1.24c.42-.44.77-.72,1.21-1.21l1.77-2c.6-.67,1.22-1.36,1.85-2.13.34-.4.76-.85,1.13-1.29.55-.66,1.09-1.44,1.68-2.16s1.29-1.67,1.69-2.14a13.84,13.84,0,0,1,1.4-1.52l-1.77,2.35-.82,1.09-.74.91a140.11,140.11,0,0,1-11.1,12.11c-.16.16-.33.35-.48.53s-.32.35-.46.47-.22.15-.28.2c-.24.2-.21.24-.23.26a16.63,16.63,0,0,0-2.18,2.19c-.35.37-.81.79-1.24,1.17s-.85.67-1.07.88c.31,0,.19.24.86,0a16.86,16.86,0,0,0-2.89,2.46,7,7,0,0,0-.79.66c-.59.43-.5.29-1.17.75-.51.35-.6.5-1.08.85-.66.47-1.49.88-2.29,1.54-.49.52,1.17-.71.37-.07a17.14,17.14,0,0,0-1.54,1l-1.33.9c-.37.25-.41.22-.88.54s-.66.49-1.13.79c-1.29.84-1.95,1.11-3,1.72-.57.35-1.19.86-2,1.35-.49.29-1,.51-1.53.81a3.56,3.56,0,0,1-1.17.72,28.34,28.34,0,0,0-2.76,1.42L380.36,400l-2,.91c-.61.29-.91.52-1.52.81a7.6,7.6,0,0,0-1,.36c-.45.21-.54.32-1.24.63s-1.44.5-2.26.84c-.55.23-1.06.52-1.56.73-.71.31-1.37.58-2,.82s-1.27.39-1.89.55a14.27,14.27,0,0,1-2.59,1c-.1,0,.63-.26.63-.31a17.22,17.22,0,0,0-2.89,1.13,6.07,6.07,0,0,0-1.36.27c-.48.13-2,.55-2.66.75s-.89.35-1.62.57-1.62.33-2.7.58-2.1.51-3.15.77c-.52.14-1,.25-1.53.34l-1.37.25c-.56.09-1.13.13-1.71.24s-.46.13-1,.24-.48,0-1,.15a12.34,12.34,0,0,1-1.34.3,15.72,15.72,0,0,0-1.72.15c-.35.22,2.09-.29,1.4,0-2.62.39-3.67.36-5.47.75-.84,0,.36-.18-.36-.13a29.32,29.32,0,0,1-3.08.35l-2.48.19c-.84.06-1.66,0-2.33.06-.07-.12,2.25,0,1.71-.19-1.38,0-2.94.14-4.47.17-1,0-1.88-.14-2.75,0s.89.12,1,.18a27,27,0,0,1-2.75,0c-.64,0-.72.09-1.38.07-.07,0-.66-.11-1-.14s-.8,0-1.11,0-.48,0-.26-.1c2.16.08,4.1.23,4.47-.1-1.14,0-2.31,0-3.5,0-.6,0-1.2,0-1.8-.08l-1.83-.14c-1.23-.09-2.48-.16-3.75-.28s-2.54-.3-3.84-.43c-.85,0,1.29.32,1,.48l-2.4-.27c0-.08.94.06.71-.08A151,151,0,0,1,290,409.11c.28-.06-.89-.32-.61-.37.59.14,1.65.47,1.35.26-1.35-.42-2.73-.76-4-1.1-1-.29-1.81-.46-2.32-.6s-1.12-.37-1.64-.52c-.16,0-.71-.14-1-.23s-.89-.29-1.3-.44c-.81-.27-.83-.22-1.31-.4-1.11-.4-2.12-.84-3.18-1.3-.9-.29.57.37-.71-.09a9,9,0,0,0-1.53-.78c-.39-.18-.37-.24-.6-.35-.43-.2-.71-.26-1-.36-.82-.36-2.24-1.06-2.79-1.34-.78-.38-2-.87-2.82-1.27-.31-.14-.34-.21-.6-.33s-.41-.14-.94-.41-.77-.45-1.19-.69-.31-.08-.64-.25a7.61,7.61,0,0,0-1.47-.89c-.44-.13.8.63-.1.18-1.21-.69-2.05-1.25-2.95-1.75s-1.49-.8-2.1-1.18c-.13-.08.21,0-.23-.28a1.9,1.9,0,0,1-.94-.43c-.45-.36.05,0,.09-.14-.73-.48-1.34-.84-1.93-1.2l-1.83-1.2c-1.17-.79-2.38-1.63-3.41-2.4a22.71,22.71,0,0,0-2.47-1.74c.21.16.55.4.53.44-.82-.72-1.69-1.21-2.5-1.81s-.83-.78-1.55-1.36c-.57-.46-.69-.44-1.38-1,0-.11.36.18.38.09-.74-.6-1.16-.86-1.91-1.46-.44-.33-.76-.7-1.26-1.15-1.71-1.56-3.84-3.25-5.32-4.84-.66-.67-1.24-1.34-1.88-2a2.62,2.62,0,0,1-.31-.19c-.16-.14-.55-.54-.72-.72-.6-.66-1.35-1.6-2-2.34l-1.65-1.74c-.64-.69-1.2-1.51-1.73-2.12-.32-.38-.83-.9-1.15-1.26s-.23-.35-.41-.56l-1-1.16-1-1.29-2-2.66-.75-1-.71-1.08c-.47-.72-.94-1.45-1.42-2.15-.76-1.1-1.46-2-2.12-3.12-.34-.57-.67-1.21-1-1.77s-.62-.88-1-1.43a24.57,24.57,0,0,1-1.26-2.18l-1.27-2.4c-.9-1.6-1.66-3.3-2.39-4.81-.23-.46-.54-1-.81-1.51-.44-.8-1.1-2.7-1.23-2.45.18.47.36.91.54,1.34l.59,1.22c.41.82.83,1.68,1.35,2.71.35.71.68,1.48,1.09,2.22s.79,1.48,1.18,2.2c.79,1.43,1.46,2.8,2.1,3.73.31.47.5.66.78,1.13.19.31.5,1,.64,1.21.55.93,1.33,2.14,1.46,2.32.24.37.28.56.51.9a2.51,2.51,0,0,1,.26.24c.15.2.41.62.57.85.57.81,1.21,1.73,1.7,2.49a10.27,10.27,0,0,1,.93,1.52c-.88-1-1.87-2.71-2.54-3.66s-1.31-1.78-2-2.81c-.18-.3-.17-.37-.32-.61L211.88,350l-.59-.95-.52-1-1-1.73c-.66-1.22-1.2-2.19-1.76-3.33L206.5,340c-.46-1-1-2-1.29-2.8-.23-.54-.49-1-.73-1.55-.31-.69-.85-2.16-.91-1.86.54,1.22,1,2.57,1.58,3.81.28.63.51.9.8,1.52.18.38.25.64.55,1.26.57,1.17,1.17,2.35,1.87,3.68.55,1,1.13,2.09,1.7,3.16s1.14,2.17,1.76,3.17l1.73,2.89.78,1.27.75,1.09c.33.45.54.64.84,1.09s.75,1.31,1.24,2.06c.25.39.48.73.75,1.08l.88,1.14,1.53,2c.57.74,1.13,1.58,1.81,2.37l2,2.5c.69.85,1.38,1.72,2.12,2.51.44.48.55.53,1,1,1.26,1.37,2.27,2.64,3.5,3.78s1.65,1.64,2.69,2.67c.44.46.89.8,1.27,1.16s.54.6,1,1,.62.47,1.08.86c0,0,.4.43.73.73s.38.28.8.66,1.12,1.06,1.77,1.64c.91.77,2.25,1.83,3.47,2.82.42.32,1,.85,1.33,1.1.75.59,1.79,1.33,1.94,1.44.36.24,1,.83,1.64,1.25.46.28.78.39,1.22.67s.83.61,1.41,1c.8.52,1.66,1.05,2.63,1.64,1.42.85,2.78,1.77,4.38,2.75.57.37,1.26.64,1.83,1s1.18.73,1.78,1.06c2.17,1.29,4.77,2.38,6.78,3.4.54.27,1.07.6,1.53.8.89.41,1.83.77,2.86,1.22.54.23.95.45,1.58.71s1.11.39,1.62.59c1.13.43,2.78,1.12,3.53,1.43a21.48,21.48,0,0,0,3.3,1l2,.66c.66.2,1.65.55,2.32.71s.87.16,1.36.27c2.28.55,2.78.85,4,1.18.75.2,1.61.26,2.38.43s1.38.37,2,.51,1.11.2,1.7.32.61.16,1.35.28c1.1.16,3,.46,4.1.66.46.07.86.22,1.36.29s1.17.11,1.72.19c.73.09,1.18.21,1.71.27-.21,0,.87.06,1,.07l1.47.14c.61,0,1.25.08,1.63.13.1,0-.08.07,0,.08.6.11,3.35.17,3.11.15.64.05,1.15.17,1.73.18.07,0,.79-.06,1-.07s.42.05.69.05c.1,0,.28,0,.69,0,2.47,0,4.14.16,5.55.06.45,0,1.27-.13,1.73-.14.17,0,.45.06,1,0s.79-.09,1.38-.09c.38,0,1,0,1.39,0,1.9-.1,2.71-.27,4.14-.4.44-.05,1.07,0,1.74-.08,1.52-.23.81-.24,1.71-.24a22.67,22.67,0,0,0,2.27-.27c1-.16,2.22-.3,3.23-.5,1.3-.23,2.52-.35,3.43-.53.73-.14,1.38-.35,2-.47,1.93-.47,4.88-1.15,7.09-1.71.45-.12,1-.21,1.35-.31,1-.28,3-.86,3.67-1.09.49-.17.79-.36,1.28-.54.76-.27,1.59-.46,2.66-.81s2.24-.81,2.95-1c.44-.16.66-.2,1-.32,1.51-.54,2.67-1.09,3.86-1.58l1.25-.5,1.1-.47c.7-.3,1.31-.55,1.81-.78,1.34-.63,2.72-1.27,4-2,.64-.33,1.47-.68,2.19-1.07.13-.07.63-.39,1.21-.69s.69-.28,1-.42,1.08-.7,1.77-1.09c.91-.52,1.56-.94,2.39-1.43l1.23-.72c.5-.3,1.05-.67,1.6-1l2.47-1.59a2.94,2.94,0,0,1,.55-.42c.28-.18.35-.15.92-.52,1.1-.78,1.75-1.3,2.26-1.62a21.42,21.42,0,0,0,3.9-2.92,16.58,16.58,0,0,0,2.72-2.17l2.65-2.25,1.84-1.6c.07-.05,0,.11.06.06a11.45,11.45,0,0,0,1.46-1.34c.51-.56,1-1.11,1.25-1.36.46-.46,1.08-1,1.54-1.41s.52-.58,1-1c1.34-1.37,3.11-3.26,4.55-4.81.43-.49.71-.94,1.09-1.36s.53-.53.95-1l1.11-1.34c.36-.22,0,.14.39-.14.17-.19.45-.54.69-.84s.41-.55.43-.49a11.47,11.47,0,0,1-1.69,2.21c-.8,1-1.83,2.37-2.62,3.28-.53.56-.89.8-1.51,1.46-1.42,1.5-1.57,1.83-2.3,2.64-.33.39-1.18,1.07-1.47,1.49.34-.34,1.08-.85.61-.38a22.25,22.25,0,0,1-2.35,2.11,5.63,5.63,0,0,0-.47.52,7.27,7.27,0,0,0-1.19,1.28c.83-.81,1.58-1.51,1.09-.89a29.92,29.92,0,0,1-2.47,2c-.76.63-1.39,1.31-2.31,2.14l-.81.67c-1.11.87-3.64,2.94-4.41,3.45.29,0-.6.75-1,1-.13.1-1.29.94-1.71,1.22-.09,0,0-.11-.05-.07s-.47.37-.57.42-.29.06-.35.1c-.7.47-1.66,1.2-2,1.46.11,0,.1.19-.12.43-1.13.77-1,.52-.39.06a4,4,0,0,0-1.38,1.07,7.16,7.16,0,0,1-1.77,1.13,8.18,8.18,0,0,0,1.12-.84c-.89.45-1.89,1.3-2.92,1.93-.67.38-1,.48-1.55.82-.39.24-.23.25-.55.43s-.82.41-1.25.65l-2.1,1.2c-.76.39-1.51.79-2.18,1.16-.5.28-1,.66-1.49.93s-1.34.78-2.26,1.21l-1.79.86c-.79.35-1.92.7-2.6,1-.94.49-1.19.73-2.17,1.17a12.58,12.58,0,0,0-2,.76l-.68.19c-1.18.39-2.21,1-3.58,1.43a7.67,7.67,0,0,0-1.69.47c-.32.23,1.6-.4.06.16s.42-.38-1.07.11c-1.93.67-.69.47-.91.59a5.79,5.79,0,0,1-1.71.4c-.44.1-1.21.37-1.68.5a8.57,8.57,0,0,0-1,.22c-.43.11-1.18.38-1.67.54-.79.24-1.64.5-2.36.65l-4.43,1c-.39.09-.81.21-1.25.33l-1.36.33c-.93.21-1.9.43-2.85.57-.59,0,0-.06,0-.16-1.71.33-.17.13-1.35.42a20.91,20.91,0,0,1-3.05.46,28.53,28.53,0,0,0-2.83.41c-.09-.07.38-.15.32-.21a15,15,0,0,0-1.89.23c-.63.08-1.27.17-1.92.24l-3.14.32c-.57,0-.82,0-1.39,0s-1.14.12-1.75.16c-1,.05-2.3,0-3.49.09-.51,0-.63.07-1.4.09l-3.5-.12-2.44,0c-.56,0-1.28-.15-1.74-.17-.62,0-1.18.06-1.76,0a7.13,7.13,0,0,0-1.87-.26l-1.51-.12-1.13-.12c-.48-.05-1.26,0-1.75-.07-.31,0-.93-.16-1.73-.24-1.83-.13-3.65-.49-5.2-.67.59.06,1.1,0,0-.16-1.48-.19-.31,0-.72,0a18.45,18.45,0,0,1-2.76-.48c-.42-.15.11,0-.66-.22a5.3,5.3,0,0,0-.69-.11,10,10,0,0,0-2.07-.39c.19-.09-.83-.3-1.33-.45a14,14,0,0,1-2.1-.34c-.76-.16-1.55-.37-2.34-.62-.05,0,0-.07,0-.08-.22-.19-1.94-.49-2.69-.73-.49-.15-.58-.23-1.32-.46s-1.63-.42-2.36-.65-1.3-.48-2-.71c-1-.39-2.28-.89-3.27-1.25s-1.88-.65-2.82-1-1.85-.72-2.73-1.1c-1-.45-2.16-.89-3.2-1.38l-2.84-1.37-2.09-1c-.7-.34-1.37-.75-2.06-1.12-1.36-.76-2.77-1.49-4.19-2.26-.76-.47-.34-.4-1.11-.86a25.81,25.81,0,0,1-3.94-2.25l-2.89-1.95c-.63-.44-1.42-.95-2.13-1.42l-1.6-1.16c-.31-.22-.69-.57-.82-.66-.74-.52-1.33-.84-2-1.36-1-.71-1.91-1.59-2.86-2.38s-1.89-1.58-2.78-2.29c.62.62,1.48,1.35,1.79,1.66l.49.51c.55.47,1.7,1.13,1.89,1.55-1-.91-1.55-1.14-2.51-1.9-.5-.39-.59-.54-1.06-.92-.67-.53-1.09-.89-1.6-1.35s-1-1-1.53-1.44-.86-.7-1.35-1.11c-.15-.13-.53-.48-.83-.77s-.56-.53-.5-.37c.66.73,1.45,1.39,2.15,2.05l1.95,1.76,1,.89c.33.29.67.56,1,.83l2,1.64c.68.55,1.35,1.1,2,1.64l2.15,1.55c1,.75,2.69,2,3.13,2.25.81.56,1.5,1.15,2.25,1.67s1.85,1.27,2.88,1.88,2.1,1.21,3.08,1.8c.61.37.91.61,1.48.94s1.25.59,1.88.95c.42.24,1,.69,1.48.95.72.41,1.77.93,2.8,1.46,1.53.74,2.62,1.32,3.77,1.86.65.31,1,.43,1.6.73s1.49.72,2.22,1l2.6,1.06c1,.46,2.07.82,2.94,1.14,1.16.41,2.29.84,3.43,1.28s2.32.78,3.52,1.17c1,.31,1.73.49,2.69.8,1.45.43,2.91.85,4.39,1.26.47.13.88.22,1.31.32s.88.21,1.42.32l4.46,1c.83.2,1.65.33,2.45.46l2.37.38,2.29.36c.76.1,1.51.17,2.26.26,1.37.15,2.81.39,4.18.55.66.06.77,0,1.4.05l3.16.24c1.35.1,2,.13,3.16.13.81,0,1.59.07,2.46.07.64,0,1.19,0,1.75,0s.72.09,1.41.08c-.05,0,.6-.07,1.06-.08.72,0,1.58,0,2.1-.08l1.06,0c.38,0,.81,0,1,0,.68,0,1.67-.15,2.46-.22s1.12-.05,1.75-.11a36.13,36.13,0,0,0,4.53-.63,18.15,18.15,0,0,0,2.67-.22l1.66-.24.94-.14,1-.19c.77-.15,2.75-.51,3.81-.69.62-.1.95-.09,1.4-.18.23,0,.33-.15,1-.31.84-.19.63-.06,1.73-.33l3.89-1c1.31-.37,2.61-.79,3.93-1.1-.74.45.45.12.45.3.82-.27,1.75-.55,2.53-.75a6.72,6.72,0,0,1,1.56-.38c-1.57.62-3.19,1-4.73,1.46s-3,.9-4.42,1.24c-.65.17-1.11.34-1.69.5s-.66.1-1.39.29c-.43.12-.61.24-1,.33,0,0-.51.05-.7.09-2.87.5-3,.84-4.81,1.2-.33,0,1.51-.51,0-.2-.14.31-.83.11-.7.09-.75.12-1.6.39-2.43.5-1.1.18-2.44.37-3.8.56l-2,.29-1.9.17-3.29.37c-.53,0-1.06.11-1.57.13s-1,0-1.49,0a20.22,20.22,0,0,1,2.23-.18c.83-.06,1.58-.13,1.64-.29-1.06.16-2,.18-2.47.21s-.74.1-1.41.14a19.7,19.7,0,0,0-3.17.16c.67,0,1.52,0,1.42.07-.74.08-1.42.11-2.11.12h-1l-1.1,0c-.52,0-1.2.05-1.77.06-1.08,0-2.53-.05-3.9-.1-.36,0-.41,0-.71,0-.69-.05-1.09-.12-1.76-.11s-3.58-.17-4.24-.29c-.05,0-.14-.12-.35-.16a7.93,7.93,0,0,0-1.41-.11c.43.05.83.1.7.16-2-.13-5.06-.49-6.69-.79-.51-.08-1.19-.12-1.76-.2s-.48-.13-1-.21c-1.81-.23-3.79-.71-5.81-1.13s-4.06-.95-6-1.43c-.49-.12-.6-.08-1.05-.19.09,0-.61-.21-1-.31-.21,0-2-.47-1.35-.45-1.38-.47-.69,0-2.08-.48a20.1,20.1,0,0,0-2-.69c-.39-.13-.81-.25-1.21-.39l-1.17-.45c-.53-.21-.69-.37-1.3-.57-.31.11-2.16-.74-3.36-1.15-.61-.24-1.4-.46-2-.71-.4-.17-1-.51-1.6-.77s-1.4-.65-2-.87c-.76-.33-1.54-.64-2.27-1s-1.23-.66-1.88-1c-.81-.33.52.39-.4,0-.42-.22-.91-.44-1.45-.69s-1.1-.58-1.7-.93-.78-.51-1.52-.91c-.45-.25-1.05-.53-1.58-.81-.83-.42-1.81-1-2.79-1.62s-1.95-1.19-2.69-1.65-1.33-1-2-1.42c-.44-.3-1.09-.65-1.52-.93s-.87-.64-1.44-1-1-.59-1.51-1-.91-.73-1.39-1.09c-.15-.1-.39-.23-.88-.6s-.65-.54-1.11-.88-1-.62-1.47-1-.81-.77-1.32-1.19c-.35-.28-.85-.59-1.15-.83s-.89-.79-1.34-1.16c-.68-.53-1.37-1.16-2.11-1.82l-2.29-2-1.18-1.05-1.13-1.1L228,377.87l-1.22-1.28c-.56-.59-.51-.43-1-1s-.5-.6-.93-1.07-.85-.87-1-1c-.44-.5-.42-.58-.89-1.11s-.67-.63-1-1l-1.78-2.21c-.47-.58-1-1.22-1.59-1.92s-1.13-1.51-1.74-2.32l-1.9-2.54c-.65-.87-1.23-1.81-1.86-2.71L211.23,357c-.59-.9-1.11-1.8-1.64-2.64-1-1.7-2-3.19-2.65-4.42-.32-.56-.78-1.27-1.08-1.83,0,0-.09-.33-.1-.35a21.29,21.29,0,0,0-1.17-2.19l-1.37-2.87c-.45-1-.94-2.09-1.34-2.9-.16-.33-.42-.8-.63-1.27s-.14-.48-.37-1l-1-2.43c-.36-.87-.75-1.79-1.09-2.79s-.73-2-1.11-3.09-.79-2.16-1.12-3.29l-1-3c-.31-1-.67-1.76-.9-2.7-.48-1.72-.81-3.27-1.1-4.11,0-.09-.05.07-.08,0s-.18-.64-.21-.68-.06.43-.08.38c-.21-.38-.51-1.64-.54-1.34a15.08,15.08,0,0,0,.39,2.47c.15.66.41,1.38.59,2.06s.16.79.3,1.4c.11.42.15.49.32,1s.18.77.37,1.37c.26.85.62,1.82.9,2.71.22.7.44,1.51.71,2.32l.86,2.42c.44,1.17.9,2.27,1.28,3.32s.67,1.66,1.08,2.64c.5,1.2,1.07,2.55,1.67,4l2,4.27c.64,1.45,1.41,2.8,2.08,4.07s1.3,2.44,1.88,3.38c.27.41.54.74.81,1.18.51.82,1,1.75,1.56,2.66l.78,1.34c.26.42.53.83.78,1.2s.76,1,1.07,1.43.7,1.11,1,1.5.69,1.06,1.1,1.6l1.18,1.59c.66.88,1.36,1.77,2.07,2.66s1.48,1.73,2.19,2.61c.32.37.75,1,1.11,1.4,1.14,1.46,2.67,3,3.53,4,.42.49.69.87,1.14,1.37a27.29,27.29,0,0,0,2,2,16.65,16.65,0,0,0,2.3,2.24c.45.44.79.84,1.13,1.21s.68.72,1.09,1.11c.16.15.88.73,1.35,1.17.24.22.87.84,1,1l-3.1-2.74c-.57-.48-1.08-1-1.54-1.45l-1.15-1.12-2.3-2.28c-.74-.78-1.42-1.53-2-2.07s-.68-.61-1-1l-.76-.76a20.78,20.78,0,0,1-1.84-2.2c-.66-.77-1.42-1.51-2.18-2.37-.55-.62-1.16-1.42-1.78-2.25-.23-.3-.59-.67-.92-1.09s-.75-1-1.07-1.44c-.5-.61-.88-1-1.25-1.44s-.67-.81-1.08-1.31c-.07.16.58,1,.47,1s-.92-1.32-.74-.8A33.6,33.6,0,0,0,215,366l1.23,1.65.6.8.58.69c.33.4.44.41.75.78s.44.6.88,1.14c.74.86,1.57,1.81,2.38,2.7l2.43,2.66c.48.51,1,1,1.51,1.54,1.46,1.42,3,3.06,4.59,4.57.52.47,1.09.9,1.65,1.39,1.15,1,2.32,2.14,3.48,3.13.67.54,1.27,1,2,1.53,1,.82,2.09,1.73,3.19,2.59s2.24,1.69,3.34,2.48c.52.38,1.11.84,1.77,1.26l2,1.34,2,1.3.89.58.79.47c.56.33.92.61,1.21.78.09,0,.74.35,1.27.67s.4.31.9.6.8.39,1.27.67a10.48,10.48,0,0,0,.93.56c1.18.62,2.57,1.38,4,2.13.69.39,1.4.74,2.09,1.06l1.94.9c.6.28,1.07.43,1.65.71.81.41,1.68.85,2.59,1.25s1.64.66,2.66,1.08c.46.19.59.31,1.31.6,1,.39,1.3.5,2.35.89.5.18.62.18,1.36.46s1.57.63,2.35.91c.61.21,1.07.23,1.75.44.31.09.59.22,1,.36,1.67.55,3.93,1.3,6.24,1.85l3.36.85c1.07.26,2.07.43,2.9.61.45.09.48.16,1,.27.06,0,.26,0,.37,0,1.32.2,2.55.64,3.5.77.78.13,1.63.19,2.5.32,1.46.21,2.86.53,4.62.7l2.89.28c1,.08,1.94.19,2.83.22.56,0,1.22.12,1.8.16l3.43.16c1.15,0,2.29,0,3.38,0,.57,0,1.3.06,1.44.06.51,0,.65,0,1.44,0,.38,0,.83.09,1.07.08.54,0,.75-.07,1.08-.09.68,0,.79,0,1.44,0l3.66-.18c1.23-.11,2.44-.23,3.5-.3.41,0,1,0,1.44,0l1.07-.18.91-.08c.32,0,.63-.08.87-.13a16.23,16.23,0,0,1,1.76-.41,33.66,33.66,0,0,0,3.81-.38c1.5-.27,3.14-.62,4.7-.91.63-.12,1.27-.22,1.92-.32s1.3-.27,1.95-.42,1.14-.32,1.74-.46.81-.15,1.4-.3c.91-.24,1.8-.49,2.76-.81l4.83-1.39a19.54,19.54,0,0,0,2-.69c.59-.22,1.15-.43,1.74-.62s1-.28,1.72-.52c.37-.13,1.22-.51,1.66-.68,2.2-1,5.3-2.06,6.65-2.7.34-.17.34-.26.62-.38l1.33-.54c1.7-.74,3-1.37,4.21-2l2.23-1.15c1-.54,1.8-1,2.22-1.18.19-.09.22.05.4,0s1-.55,1.26-.68-.06.12.05.07c.92-.42,1.61-.77,2.26-1.11l1.62-.82c.37-.21.88-.55,1.23-.74.71-.43.93-.5,1.57-.9.48-.29,1-.7,1.5-1s.78-.43,1.25-.73c1.39-.88,1.44-1,2.12-1.38.35-.22.63-.41.92-.58.49-.28.1.14.44,0s1.74-1,2.19-1.31.46-.38,1.42-1.13c.41-.33.53-.37,1.14-.88l1.92-1.67,1.47-1.23c.53-.45,1.05-.95,1.6-1.44,1.1-1,2.23-2,3.18-2.84.37-.31.58-.46.84-.69.45-.42,1-1,1.54-1.53s1-.85,1.35-1.22c.54-.54,1.07-1.06,1.53-1.55s1-1,1.52-1.55c1-1.12,1.95-2.12,2.92-3.23s1.79-2,2.64-3l1.39-1.68c.46-.58.77-.9,1.16-1.4,1-1.35,1.94-2.6,2.82-3.78.39-.55.75-1,1.09-1.45l1.87-2.68c.19-.27.23-.42.37-.63.38-.51.7-1,1-1.49.94-1.45,1.43-2.36,2.09-3.41.41-.65.69-1,1-1.53a15.38,15.38,0,0,1,1.39-2.55,30.07,30.07,0,0,1-2.81,5.1c-.66,1.08-1.17,2-1.86,3.12-.31.52-.72,1-1,1.5-.88,1.31-2,3.16-2.76,4.29-.43.59-.89,1-1.37,1.7-.75,1-1.47,2-2.19,3-.35.5-.72,1-1.1,1.44l-1.13,1.37c-.9,1.07-1.79,2-2.63,3-.2.22-.72.91-.92,1.14-.79.89-2.17,2.42-3,3.22-.25.28-.78.69-1.08,1s-.41.56-.69.86c.17-.18-.25.19-.28.23-1,.88-1.61,1.7-2,2.11a117,117,0,0,1-9,7.95c-.69.56-1.31,1.12-2,1.63s-1.32,1-2,1.53c-.52.36-1,.68-1.5,1.05s-.94.72-1.41,1.09-1,.7-1.53,1.08-1.09.68-1.54,1l-1.59,1.08-.85.58-.91.56c-.59.36-.71.38-1.28.72-.12.07-.66.45-1.23.78s-1.09.6-1.59.9-1.09.67-1.61,1-1,.59-1.55.87c-.74.39-1.49.72-2.3,1.13-1.08.57-2.23,1.09-3.32,1.6l-2.95,1.38c-.63.29-.71.4-1.32.65-1.71.69-3.35,1.26-4.76,1.87-.57.23-1.14.57-1.67.75s-1.25.36-1.75.53c-.66.23-1.36.53-2.05.77s-1.58.49-2.45.76c-3.52,1-6.6,2.06-9.85,2.71l-3.21.74c-.58.12-1.23.18-1.8.27l-1.44.28-1.8.26-2,.33-2.08.25-3.9.46c-.76.11-1.43.16-2,.2l-1.63.15c-1,.11-1.85.22-2.86.36-.07.31,1.31.35.42.63-.7,0-1.35.12-2,.12h-1.7c-.26-.11-.26-.07,0-.2-.93,0-1.86,0-2.86-.06l-3.36,0c-.48,0-.68.05-1.09.07s-1.06,0-1.47,0c-.81.06-.5.21-.73.24a12.71,12.71,0,0,1-2.14.11l-2.62-.18c-.73,0-2.4-.12-2.56-.11s-.45.06-.81.12l-.48.08a1,1,0,0,1-.21,0c-.47.11-.05.27,0,.33s-.43,0-.38.09.61.26,0,.29c1.37.18,2.34.4,4,.56.45,0,1.66,0,2.95.14s1.74,0,3,0c.72,0,1.15-.06,1.85-.07,1.13,0,2.25.07,3,0,1-.07,1.68-.21,2.58-.26.23,0,1.27,0,1.85,0l1.66-.07,1.66-.14c2-.16,3.93-.38,5.51-.54.77-.1,1.41-.14,2.2-.26s1.5-.29,2.18-.39c1.34-.19,1.82-.17,2.21-.22.68-.12,1.25-.3,2.16-.49,1.85-.4,3.53-.66,4.71-.9.52-.12,1.22-.36,2.13-.6l1-.24c.54-.12,1.16-.27,1.49-.37.55-.15.85-.32,1.4-.47s1.14-.23,1.78-.44c1.09-.33,1.78-.63,2.81-.92a17.71,17.71,0,0,0,2.17-.47c1.07-.37-.09-.08.65-.37s1-.29,1.76-.52c.41-.14.5-.23,1-.41s.52-.12,1.06-.33.71-.34,1.36-.57,1.33-.38,1.76-.55c2.26-.88,3.44-1.49,4.74-2s1.7-.63,2.06-.8c.72-.33,1.23-.66,2-1s1.58-.66,2.36-1c.5-.19,2.71-1.39,3.26-1.71.74-.41,1.34-.81,1.91-1.11l1-.45.85-.42.83-.48,1.68-1c1.14-.71,2.34-1.42,3.6-2.22s2.13-1.35,3.09-2c.62-.43,1.14-.86,1.79-1.3l3.27-2.32a39.56,39.56,0,0,0,3.55-2.69c.58-.49.81-.76,1.37-1.22.32-.27.65-.44,1.19-.87s1.1-1,1.4-1.2c.92-.84,1.81-1.63,2.73-2.46l2.11-1.88c.65-.63,1.28-1.26,1.89-1.91,0-.18.06-.31,1.45-1.67.54-.42.5-.45.38-.14a19.4,19.4,0,0,0,2.26-2.5c.52-.64,1-1.24,1.85-2.21a7.75,7.75,0,0,0,2.06-2.09,7.12,7.12,0,0,1-1,1.06,32.39,32.39,0,0,1,3.18-3.56c1-1.39,2.61-3.28,3.8-4.95.28-.4.49-.79.82-1.23.6-.78,1.13-1.6,1.73-2.44s1.2-1.71,1.84-2.67c.81-1.18,1.21-1.91,1.77-2.79.37-.59.38-.71.73-1.27.24-.39.32-.42.61-.92.5-.88.77-1.43,1.2-2.27.25-.46.67-1.15.92-1.59.56-1,1-1.92,1.55-2.91.77-1.45,1.67-3.27,2-3.92.2-.42.35-.9.57-1.36s.36-.71.55-1.09.37-.78.55-1.22l.69-1.7c.45-1,.87-1.88,1.34-3,.5-1.34.83-2.22,1.29-3.42.23-.66.33-1.08.56-1.75l.39-1.1.36-1.12.73-2.23a44.19,44.19,0,0,0,1.29-4.27c.11-.44.17-.91.3-1.44s.45-1.53.6-2.11l.35-1.36c.11-.45.18-.91.27-1.36l.53-2.65c.13-.6.28-1.15.42-1.78.06-.27.11-.56.17-.86s.07-.61.13-.94c.17-1.05.4-2.18.57-3.25.1-.7.28-1.71.39-2.81l.34-3.36c.1-.91.26-1.84.29-2.18.06-.83-.06-.55,0-1.46,0-.53.13-1.12.19-1.82.14-1.7.26-3.13.28-4.6v-4.9l0-1.35,0-1.34-.08-2.79-.12-2.7-.24-2.74c-.16-1.74-.3-3.26-.4-4a13.68,13.68,0,0,1-.33-1.43c.11.16.05-.47,0-1.11,0,.19-.27-1.84-.21-1.44-.19-1.25-.33-1.48-.48-2.52-.13-.82-.18-1.6-.34-2.53-.08-.43-.37-1.75-.53-2.5-.11-.53-.16-.64-.31-1.43-.12-.64-.08-.78-.24-1.44s-.47-1.78-.74-2.83l-.84-3.35L453,246.76l-.54-1.82c-.18-.6-.36-1.21-.59-1.79l-1.25-3.42c-.25-.64-.57-1.34-.82-2-.12-.36-.19-.58-.37-1-.55-1.39-1-2.49-1.47-3.48s-.82-1.91-1.27-2.9c-.23-.52-.31-.83-.55-1.36-.48-1-1.33-2.69-1.45-3s-.16-.46-.44-1-.87-1.45-1.29-2.21-1.1-2.16-1.52-2.92-.81-1.28-1.2-1.87a20,20,0,0,1-1.14-1.84c0-.15.58.88.67.87-1-1.58-1.31-2.31-2.24-3.77-.31-.4-.17,0-.55-.51-1.13-1.6-2-3-3-4.57-.79-1.08-2.24-2.84-2.91-3.77-.46-.62-.86-1.39-1.45-2.11-.38-.46-.78-.83-1.23-1.35l-2.11-2.5-.59-.71-.54-.58-.58-.64c-.42-.5-.54-.85-1.11-1.46-.07,0,0,.12-.34-.19a90.89,90.89,0,0,0-6.8-7.16c-1-.85.26.5-1.2-.86-.57-.52.47.28-.16-.37C414,185.72,413.42,185,412.54,184.21Zm44.1,138.84a6.2,6.2,0,0,1-.24,1.35,4.89,4.89,0,0,1-.43,1.17c-.1.13,0-.23.11-.76A13.27,13.27,0,0,1,456.64,323.05Zm1.84-7.22c-.2.14.3-2.46.58-3.31A25.57,25.57,0,0,1,458.48,315.83Zm2.88-32.2,0,.93v.93l0,1.86a15.68,15.68,0,0,1-.09-2.6C461.27,284,461.28,283.4,461.36,283.63Zm-24.29-74c.51.75,1,1.47,1.2,1.86C438.25,211.63,436.52,209.14,437.07,209.6ZM393.6,169l1.58,1C395.6,170.38,393.05,168.84,393.6,169Zm9.73,6.71c-.3-.24-.82-.61-1.23-.9s-.71-.49-.52-.46A6,6,0,0,1,403.33,175.73Zm19.38,17a2.63,2.63,0,0,1-.72-.54A12.05,12.05,0,0,1,420.8,191a3.26,3.26,0,0,1,.68.49A11,11,0,0,1,422.71,192.72Zm-65-37.9,2.49.65,0,.08-2.48-.65Zm10.48,3.4,0,.12c-.81-.28-1.32-.51-1.72-.66A8.58,8.58,0,0,1,368.19,158.22Zm-1.81-.38c-.69,0-4.28-1.19-6-1.64,0-.08.45.05.39,0,.18-.07-1.61-.42-1-.41s1.07.28,1.61.45l1.63.51C364.09,157,365.22,157.42,366.38,157.84Zm-14.18-3.69a18.2,18.2,0,0,1-1.79-.38c-.69-.16-2.11-.4-1.77-.46C349.53,153.47,352.43,154,352.2,154.15ZM387,167.23c.24.3-1.42-.68-1.62-.83A6.05,6.05,0,0,1,387,167.23ZM443.44,347.5a16.23,16.23,0,0,1,1.28-3c.13-.27.2-.3.36-.64.23-.49.25-.61.44-1a34.15,34.15,0,0,0,1.47-3.32c.4-.62-.35,1-.5,1.37,0,.07.11,0,.08,0a21.61,21.61,0,0,1-.94,2C444.94,344.33,444.23,346,443.44,347.5ZM387.78,168.08c-2-.87-1.63-1.26,0,0Zm34.33,26.7c-.44-.37-1.13-1.1-2-1.87s-1.73-1.66-2.46-2.44c-.11-.13.21,0,.12-.12s-2.27-2.23-1.23-1.35a11,11,0,0,1,1.26,1.32C419.17,191.7,421.19,193.55,422.11,194.78ZM413,185.84c.06.17-.26-.08-.38-.12.72.65.69.48,1.44,1.13.42.37,1.32,1.27,1.83,1.77-.05.18-1.47-1.19-2-1.62s-1.08-.95-1.77-1.57l-1.05-.94-1-.82c-.38-.29-1.24-1-1.2-.82-.89-.71-.67-.7-1.33-1.25a15.14,15.14,0,0,0-1.45-1.09c-.87-.62-1.77-1.43-2.57-2s-1.49-1-2.21-1.52-1.5-.92-2.34-1.47c-1.53-1-2.36-1.71-3.89-2.69-.67-.41-1.25-.67-1.9-1.05s-.78-.52-1.22-.79-.56-.29-1-.53c-.61-.37-.84-.57-1.22-.78-.68-.36-1.36-.66-2-1-.82-.41-1.49-.8-2.25-1.17-.37-.18-1-.45-1.32-.62l-2-1c-.52-.24-.79-.32-1.33-.59a14.2,14.2,0,0,1-1.25-.75c-.52-.18-1.07-.44-1.55-.64s-.91-.37-1.14-.44-1.05-.38-2-.81c.51,0-.51-.38-1.58-.94-.63-.34-.6-.38-1-.54-1.51-.62-3.72-1.22-4.76-1.81a10.15,10.15,0,0,1,2.4.84c1.09.41,2.6.92,3.73,1.46s1.14.59,3,1.35c.52.22.79.23,1.39.46.79.32,1.71.82,2.95,1.41l3,1.4c1,.49,1.88,1,2.54,1.36s1,.66,1.56.94c.92.5,1.76.76,2.62,1.28a10.34,10.34,0,0,0,1.2.82c.76.47,1.36.79,2.2,1.29.67.4.8.53,1.23.79l4.2,2.81,1.26.85,1.26.92,2.53,1.85c.54.39,1,.67,1.51,1,1.25,1,2.69,2.18,4,3.2A33.69,33.69,0,0,1,413,185.84Zm14.37,14.93c0,.28-1.46-1.49-1.69-1.9C425.66,198.54,426.86,200.16,427.41,200.77Zm-60.64-41.83c.23.22-.52-.11-1.41-.38-.58-.18-2.47-.73-2.05-.73C364.34,158.1,365.1,158.4,366.77,158.94ZM457.7,286.6c-.08,1.14.05,1.93.05,2.9,0,.57-.08,1-.11,1.81s0,.93-.05,1.44-.16,1.17-.17,1.44c0,.71,0,1.86-.06,2.9,0,.17,0,.46-.07.79s-.11.69-.13,1a6.7,6.7,0,0,1,0,1.09c-.07.53-.23.91-.29,1.43-.13,1.07-.15,2.19-.29,3.24-.13.75-.23.78-.36,1.42s-.1,1-.19,1.43-.14.36-.26,1.06c-.22,1.29-.17,1.6-.33,2.52-.12.59-.69,3.13-1,4.59-.16.68-.24.73-.31,1-.19.83-.24,1.14-.63,2.46l-.69,2.28c-.27.85-.5,1.82-.86,2.91-.08.26-.07.39-.18.7a3.09,3.09,0,0,0-.25,1.06,6.76,6.76,0,0,1-.56,1.34c-.22.62-.29,1.08-.51,1.74s-.4,1-.68,1.67c-.5,1.26-1.11,3-1.52,4.07-.28.76-.77,1.6-1.07,2.29-.39.87-.72,1.81-1.1,2.68-.27.61-.37.7-.65,1.29s-.36.89-.57,1.32-.35.54-.55.94c-1,2-1.91,4.06-3.11,6.11-.54,1-1.29,2.19-1.81,3.13s-1,1.81-1.87,3.09c-.23.35-.57.79-.82,1.18-.42.67-.45.81-.72,1.26-.39.63-1.87,2.68-2.69,3.84a15.78,15.78,0,0,1,1.89-3.08c.32-.43.63-.8.85-1.16.57-.92,1.15-1.85,1.69-2.77s.88-1.63,1.38-2.53c.16-.29.67-1,.77-1.22a115.67,115.67,0,0,0,6-12.28c.63-1.45,1-2.08,1.42-3.31.21-.61.19-.62.31-1,.19-.66.73-2.32,1.43-4.07.29-.73.57-1.16.83-2s.36-1.35.57-2.08c.27-.91.67-1.94,1-3.07s.74-2.87,1.07-4.18l.52-2.16c.15-.71.3-1.46.53-2.39.14-.73-.08-.36.06-1.09a20.72,20.72,0,0,1,.68-2.79c.15-.73.47-2.56.69-3.89.1-.61.14-1.16.24-1.78s.31-1.5.37-2.12c.11-.9.17-2.1.28-3.22.08-.8.18-1.59.24-2.37l.14-2.19c.08-1.35.15-2.44.15-3s-.08-.77-.09-1.43c.07-1.72.24-2.88.19-5.38,0-.51-.06-.92-.09-1.43s0-1,0-1.79l-.12-2.39c-.06-1-.11-2.21-.21-3.34,0-.56,0-1.26-.08-1.79s-.17-1.16-.24-1.78-.1-1-.13-1.52l-.14-1.33c-.06-.76-.23-1.89-.42-3.15s-.39-2.67-.65-3.94c-.35-1.79-.84-5.13-1.66-8.08-.07-.6.05,0,.16,0-.25-1.11-.34-1.05-.43-1.74a6.72,6.72,0,0,1-.59-1.7c0-.22.22.65.29.67a33.71,33.71,0,0,0-1-3.81c-.26-.85-.16,0,0,.38-.23-.45-.73-2.39-1.07-3.43-.06-.37,0-.38,0-.75-.17-.63-.29-.56-.32-.65-.17-.44-.25-.9-.41-1.38-.21-.65-.52-1.48-.72-2s-.43-1-.68-1.67-1.23-2.88-1.39-3.31c-.11-.27-.09-.35-.24-.68-.41-1-.72-1.53-1-2.29-.7-1.57-1.43-3.23-2.21-4.91-.25-.51-.54-1.11-.84-1.68s-.6-1.1-.79-1.52a22.51,22.51,0,0,0-1.23-2.2c-.12-.22-.36-.77-.64-1.28s-.34-.56-.57-.92c-.92-1.55-1.76-3.14-2.68-4.69-.26-.47-.7-1.06-1-1.49-1-1.48-3.19-4.91-4.48-6.52l-2.25-3c-.79-1-1.6-1.95-2.18-2.68-.81-1-.33-.52-.59-.91-.72-.9-1.35-1.57-2.16-2.42-.4-.43-.76-1-1.16-1.39-.66-.73-1.5-1.53-2.24-2.34-.51-.55-.31-.42-.94-1.09.1.11-1.33-1.25-1.57-1.49.05.05-1.44-1.54-1.16-1.39.71.68,1.26,1.19,2.08,2,.25.25.91,1,1.25,1.31.63.64,1.12,1.05,1.8,1.77.15.16.4.56.67.86.55.6,1.14,1.15,1.76,1.81.91,1,1.77,2.16,2.78,3.32.39.46.79.9,1.19,1.34l.61.68.56.71c.28.36.83,1.18,1.05,1.47L431.8,208l.79,1,.75,1.07,2.81,4c.3.44.58,1,.91,1.56s.77,1.1,1,1.5c.33.55.58,1.11.86,1.59s.85,1.26,1.13,1.85c.41.81.75,1.58,1.09,2.29.69,1.25,0-.3.49.55s1,1.85,1.47,2.77.93,1.81,1.36,2.69c.24.5.45,1.15.7,1.66.13.3.33.67.55,1.06s.39.83.55,1.22.39,1.16.48,1.37c.26.61.63,1.33.91,2s.57,1.32.82,2l.73,2,.92,2.35c.37,1,.69,2,.92,2.74s.37.85.54,1.35c.33.94.6,1.87.88,2.83.13.49.29,1,.41,1.49l.39,1.59c.14.55.36,1.12.52,1.74s.24,1.23.39,1.76c.2.8.41,1.27.56,2.1s.32,1.83.51,2.85c.09.51.27,1.21.38,1.77a10,10,0,0,1,.13,1.08c.11.59.24,1,.3,1.42s0,.36.07,1.09a39.19,39.19,0,0,0,.82,4.63c0,1.22.14,2.24.39,4.33.08.65.19,1.29.24,1.8s0,1.27.08,2.18c0,1.2.09,1.89.11,2.89,0,1.24-.12-.1,0,1.09l.08,1.17c0,.58,0,1.26,0,1.72C457.82,287.62,457.79,286.37,457.7,286.6ZM259.92,167.31a12.08,12.08,0,0,1-1.9,1.06A9,9,0,0,1,259.92,167.31Zm113.74-5.05c-.46-.21-1-.42-1.43-.61l-1.38-.48a5.22,5.22,0,0,1-1.55-.68c.44.14,1.6.53,2.61.91A5,5,0,0,1,373.66,162.26Zm-124,11.24a9.82,9.82,0,0,1-1.11.94c-.63.45-.81.49-1.23.77-1.16.78-2.67,1.94-3.54,2.5-.14-.15,1.11-1,2.29-1.77C247.44,175.05,248.8,174,249.69,173.5ZM357.87,157a29.49,29.49,0,0,1-4.24-.94c-2.11-.43-4.35-1-6-1.27l-2.5-.38c-.66-.11-1.07-.22-1.43-.27-.74-.11-1.35-.11-2.16-.23s-1.69-.2-2.47-.3l-2.26-.28c-1.43-.2-2.72-.41-3.88-.51s-.23.12-1.09.05c-1.11,0-1.06-.13-2.16-.17a9.66,9.66,0,0,1,2.31-.07c1,.06,2.17.11,3.12.24l5.4.6c.45,0,1.5.27,1.43.26.73.11,1.57.14,2.16.22s1.27.25,1.43.27.56.05,1.08.13c1.21.2,2.12.48,3.19.68.1,0,.7.07.72.07a.8.8,0,0,1,.35.12l1.91.39,1,.2.93.24C355.87,156.37,357,156.69,357.87,157Zm-116,22.28c-.77.61-1.63,1.24-2.4,1.89s-1.52,1.24-2.14,1.67c.4-.38,1.4-1.27,2.35-2.08A12.11,12.11,0,0,1,241.82,179.28Zm76.26-26.8c.48.13-1.17.16-2.16.2l-1.68.06c-.56,0-1.1.09-1.57.15-1.16.12-2.34.34-3.59.48l-1.69.17-2.38.33c-1.63.23-3.16.42-3.45.42-.12,0-.45,0-.76.07l-.68.12c-1.09.23-1,.31-1.75.46s-1.15.18-1.78.3c-.94.18-1.93.36-2.9.59l-2.73.68a24.83,24.83,0,0,1-4.24.93l6.3-1.6c.83-.22,1.61-.3,2.49-.48.64-.13,1.43-.35,2.11-.49.38-.07,1-.1,1.44-.19s.78-.26,1.4-.39c2-.33,4.57-.62,7.16-1l2.88-.34,2.49-.22,1.15-.1,1.05,0c.66,0,1.33,0,1.81,0S317.57,152.35,318.08,152.48Zm-81.34,30.85-1.25,1.06-.68.58-.68.64c-.93.88-1.94,1.83-3,2.79-.55.44-2.84,2.73-3,2.66a12.82,12.82,0,0,1,1.28-1.27c.85-.86,2.12-2,3.17-3,.42-.37,1-.86,1.36-1.18A11.75,11.75,0,0,1,236.74,183.33Zm-9,8.3c.21.06-1.21,1.31-2,2.09-.87.93-1.84,2.11-2.63,3a7.77,7.77,0,0,1-.79.74c-1.25,1.35-2.18,2.85-3.44,4.16a27.75,27.75,0,0,1,2.23-2.83c.39-.43.39-.47.7-.82.49-.56.7-.7,1-1,.15-.17.27-.47.39-.62.49-.57.67-.67,1-1s.67-.8,1.18-1.36C226.09,193.19,227,192.44,227.72,191.63Zm188.2-1.44c0,.08-2.39-1.95-2.11-2A16.11,16.11,0,0,1,415.92,190.19ZM283.63,158.45a10.39,10.39,0,0,1-1.52.54c-.72.22-1.56.45-2.25.72C279.83,159.48,283.24,158.44,283.63,158.45Zm2.43-.68a17.8,17.8,0,0,1-2.07.62C283.79,158.29,286.25,157.52,286.06,157.77Zm-8.95,2.82a11,11,0,0,1-2.69,1A17.06,17.06,0,0,1,277.11,160.59Zm2.4-.8a8.23,8.23,0,0,1-1.69.64A6,6,0,0,1,279.51,159.79Zm-62.43,44.05c-.66,1-2.17,3-3.39,4.64-.73,1-1.19,2-1.81,2.69-.11,0,.14-.32.1-.37.38-.59.79-1.23,1.22-1.87s.93-1.25,1.4-1.86Zm-12.55,19.65c.21,0-.53,1.2-1,1.93A9.35,9.35,0,0,1,204.53,223.49Zm39.54,170.05c-1-.8-2.57-1.87-3.14-2.39C241.13,391.15,244.45,393.58,244.07,393.54ZM438.17,352c-.37.63-1.23,2.16-1.17,1.79C437.41,353.22,438.22,351.68,438.17,352ZM269.35,407.69a3,3,0,0,1,.78,0C271.21,408.18,271,408.47,269.35,407.69Zm162.82-46.35a11.48,11.48,0,0,1-1.25,1.74A10,10,0,0,1,432.17,361.34Zm-5.09,6.9a19.78,19.78,0,0,1,1.42-2.07c.17-.16.52-.63.52-.49C428.54,366.45,427.75,367.21,427.08,368.24Zm-4.59,5.47c-.22,0,.79-1,1.34-1.67A9.79,9.79,0,0,1,422.49,373.71Zm-1.93,2.11c-.16-.07.53-.75,1.14-1.37A7.06,7.06,0,0,1,420.56,375.82Zm-8.37,8.31-1.07,1C410.81,385.16,412.29,383.82,412.19,384.13ZM337.78,154.8c-.87-.1-1.71-.19-2.13-.28C336.05,154.45,338.24,154.61,337.78,154.8ZM311.23,418.17c-.1-.14,1-.16,1.8,0A6.7,6.7,0,0,1,311.23,418.17Zm32.93-262.48c-1.13-.21-2.2-.34-3.16-.46s-1.82-.14-2.52-.27a13.81,13.81,0,0,1,3.22.24C341.61,155.19,344.58,155.53,344.16,155.69Zm6,1.08c-.86-.14-1.45-.25-2.11-.38l-1.07-.22-1.4-.22a5.92,5.92,0,0,1,2,.19C348.57,156.34,349.66,156.61,350.15,156.77Zm45.6,240-1.49,1C393.88,397.79,396,396.41,395.75,396.75Zm-30.53,14.69c1-.39,1.24-.39,2-.67C367.28,410.89,364.9,411.73,365.22,411.44Zm-33.59,6.79c-.35-.12,1.54-.21,1.78-.2A6,6,0,0,1,331.63,418.23Zm-3.93.19c0-.19,1.62-.07,2.5-.14A10.69,10.69,0,0,1,327.7,418.42Zm-7.88.08c-.34-.15,1.55-.05,1.79,0A5.45,5.45,0,0,1,319.82,418.5Zm-11.08-.64a8.05,8.05,0,0,1-1.42-.2C307,417.48,309.52,417.8,308.74,417.86Zm43.07-2.58-.87.21-.88.17a5.81,5.81,0,0,1,1-.31C351.48,415.23,351.85,415.17,351.81,415.28ZM239.49,389.5c-1-.76-1.56-1.3-1.27-1.26C238.67,388.53,240,389.67,239.49,389.5Zm-3.23-2.81c.67.51,1.33,1,1.33,1.19C237.13,387.59,236,386.64,236.26,386.69Zm14.89,11.06c-.92-.67-2-1.41-3-2.09s-2.07-1.33-2.87-2a11.71,11.71,0,0,1,2.16,1.27c1.1.75,1.73,1.31,3.23,2.23C250.74,397.36,251.26,397.69,251.15,397.75Zm-7.62-5.29c-.83-.57-.71-.6-1.41-1.1,0-.12.77.43,1.5,1C243.1,392,243.62,392.39,243.53,392.46ZM231.2,382.17c-.14-.3.86.69,1.38,1.14.85.74,2.23,1.89,2.06,2C233.55,384.41,232.73,383.5,231.2,382.17Zm1.92-193.72c.3-.06-.16.42-.92,1.11C231.65,190,232.4,189.12,233.12,188.45Zm34.14,217.79c.92.4,2,.76,3.12,1.2s2.3.93,3.49,1.48c.1.1-.17,0-.53-.1l-1.16-.47A50.94,50.94,0,0,1,267.26,406.24Zm2.68-241.34c1.45-.57,3.72-1.58,4.64-1.86a28.9,28.9,0,0,1-3.25,1.47C270.69,164.75,269.83,165.05,269.94,164.9Zm24.38,250.32a8.27,8.27,0,0,1,2.1.4A9.49,9.49,0,0,1,294.32,415.22ZM260.2,402.79c-.2-.32,1.76.82,2.25,1.09A10.55,10.55,0,0,1,260.2,402.79Zm52.15,14.91c3.76.18.21.37,0,0Zm-35.14-7.51a8.29,8.29,0,0,1,2,.62c.85.33,1.81.65,2.45.85s1.22.26,1.73.42c.31.1.87.35,1.34.51l1,.32a5,5,0,0,1,.7.22,8.18,8.18,0,0,1-2.07-.52c-.8-.26-1.65-.57-2.38-.8-.34-.11-1.05-.24-1.39-.35C279.5,411.16,278.19,410.58,277.21,410.19Zm-56.07-209a6,6,0,0,1-1.1,1.4A7.24,7.24,0,0,1,221.14,201.14ZM259.71,170c.22,0-2.39,1.44-2.21,1.17A17.3,17.3,0,0,1,259.71,170Zm6.7-3.35a17.23,17.23,0,0,1-2.54,1.29c-1.61.8-1.43.83-2.86,1.46-.37.16-.74.39-.67.26l1.51-.84c.51-.29,1-.57,1.58-.81Zm20.31,246.64a9.7,9.7,0,0,1,1.75.34A4.25,4.25,0,0,1,286.72,413.26Zm38.47,4.88c-.48,0-1,.05-1.43,0-.24-.12.23-.14.71-.17S325.42,418,325.19,418.14ZM242.62,180.92c.44-.2-.27.61-.27.82A11.08,11.08,0,0,0,241,182.8c-.44.4-.87.8-1.35,1.19s-1,.73-1.7,1.29c-.48.38-.94.82-1.62,1.38l-1.61,1.39c-.53.49-.73.75-1.26,1.25-.7.66-2,1.76-2.85,2.66l-1.48,1.53c-.64.63-1.44,1.27-2.1,1.92s-.83,1.07-1.58,1.91c-.11.13-.55.49-.78.73l-1.4,1.6c-.52.55-1,1.22-1.38,1.62a39,39,0,0,1-3.44,4c-1,1.52-2.19,3.08-3.35,4.57s-2.19,3-3.16,4.29c.43-.61.64-1.21,1.06-1.85s1.16-1.57,1.47-2c.77-1.1,1.38-2,2.25-3.19.42-.57,1-1.26,1.53-2,1.67-2.09,4.5-5.57,6.89-8.13l1-1.14c.38-.44.8-.92,1.27-1.39.92-1,1.92-2,2.84-2.9l1-1c.37-.32.74-.63,1.07-.94.88-.82,1.6-1.59,2.56-2.48.52-.48,1-.89,1.63-1.37l3.07-2.55c.51-.41,1-.83,1.51-1.22Zm200.18,50c-.54-1-1-2-1.53-3.21C441.39,227.56,443.07,231,442.8,230.88Zm1.39,2.88c0,.32-.79-1.51-.55-1.31A8.6,8.6,0,0,1,444.19,233.76Zm8.53,28.14a9.45,9.45,0,0,1-.26-1.39C452.56,260.2,452.93,262.15,452.72,261.9ZM380.24,404.83a29.85,29.85,0,0,0,3.16-1.64,14.79,14.79,0,0,1-1.56,1A4.27,4.27,0,0,1,380.24,404.83ZM305.6,417a7.6,7.6,0,0,1-1.77-.23,2.32,2.32,0,0,1,.87.05A4.87,4.87,0,0,1,305.6,417Zm-10.89-1.88c-.19-.13,2.44.37,2.09.45A13.4,13.4,0,0,1,294.71,415.13Zm40.55-260.24c.73.11,2.47.21,2.12.32C336.65,155.1,334.91,155,335.26,154.89Zm-85,241.63.07-.1c.63.4.76.55,1.17.81A3.77,3.77,0,0,1,250.25,396.52Zm109,16a7,7,0,0,1,2.2-.82l1.94-.54c.67-.18,1.33-.42,1.94-.62s.56-.24,1-.4c.05,0,.62-.18,1-.31,1.36-.49,2.69-1,3.67-1.35a4.61,4.61,0,0,0,1-.33l0,.11c-.63.3-1,.43-1.65.68s-1.33.36-2.05.61-2.65,1-4.35,1.58Zm-3.45.86a12.64,12.64,0,0,1,1.41-.38,3.08,3.08,0,0,1,1-.18C357.4,413.12,355.63,413.59,355.75,413.38Zm-98.69-13a28.38,28.38,0,0,1,2.87,1.41A9.39,9.39,0,0,1,257.06,400.38Zm94.22,14.17c-.58.15-1.16.25-1.75.36-.18-.05.33-.19.85-.29S351.43,414.42,351.28,414.55ZM278,410a7.51,7.51,0,0,1-1.62-.73C276.8,409.32,278.51,410,278,410ZM412.89,190.25c0,.15-.45-.23-1.13-.86C411.75,189.24,412.21,189.62,412.89,190.25Zm-98,227.15c-1.72-.12-1.9-.31-3.89-.42-.14-.21,1.62,0,2.48.08a31,31,0,0,1,3.19.2,23.8,23.8,0,0,1-2.48-.07C313.72,417.29,315.31,417.29,314.87,417.4Zm3.2,0c-1,0-.85-.11-.41-.12a6.58,6.58,0,0,1,1.48,0C319.27,417.43,317.52,417.29,318.07,417.44ZM442.65,232.12c-.27-.61-1-1.9-.68-1.63C442.36,231.25,442.82,232.09,442.65,232.12Zm-115,185.1c-.25-.15,2.68-.21,2.13,0A14.21,14.21,0,0,1,327.65,417.22ZM421,199.2l-.89-1.1C420.52,198.32,421.92,200,421,199.2ZM331.89,416.91l3.18-.28A12.56,12.56,0,0,1,331.89,416.91Zm47.8-248.82c.92.43,1.74.83,1.54.88C380.66,168.77,379.34,168.1,379.69,168.09ZM402.26,182a14.08,14.08,0,0,1-2.22-1.76C401.06,181,402.37,181.79,402.26,182ZM381.91,169.2c.53.25,1.06.52,1.57.81.21.18-.31-.07-.82-.34S381.63,169.14,381.91,169.2ZM351.18,414.1a9.17,9.17,0,0,1-1.4.26,6.22,6.22,0,0,1,1.37-.38Zm-5.57,1.1-1.39.26C343.92,415.36,345.86,415,345.61,415.2Zm12.09-2.76c-.35.1-.16,0,0-.08a8.52,8.52,0,0,1,1.67-.58c-.06,0,.18,0,.36-.06a13,13,0,0,1,2-.61C361.79,411.31,358.21,412.15,357.7,412.44ZM425,367c-.55.67-1.07,1.31-1.38,1.6C423.56,368.49,425,366.83,425,367Zm-11.17,12.13c.28-.41,1.73-1.73,2.46-2.5A27.79,27.79,0,0,1,413.82,379.17ZM410,382.79a14.54,14.54,0,0,1,2.29-2.18A20.72,20.72,0,0,1,410,382.79Zm-8.23,6.55c3.19-2.3-.88,1.19,0,0Zm-5,3.8-.07-.1c.67-.47,1.13-.73,1.47-1A11.38,11.38,0,0,1,396.73,393.14Zm-11.07,6.77a3.41,3.41,0,0,1,1.09-.75l1.89-1.09A16.31,16.31,0,0,1,385.66,399.91Zm35.69-29.05c.43-.5,1.3-1.67,1.18-1.3S421.39,371,421.35,370.86Zm-41,31.73a5.19,5.19,0,0,1,1.19-.67c.62-.33,1.36-.7,1.89-1A14.15,14.15,0,0,1,380.33,402.59Zm-2.23,1.05a8,8,0,0,1,1.89-.94A10.74,10.74,0,0,1,378.1,403.64Zm-9.7,4.08a2.26,2.26,0,0,1-1,.27c-.61.19-1.73.74-1.68.51.5-.16,1.16-.44,1.65-.59.08,0-.05.1,0,.08C367.73,407.9,368.65,407.51,368.4,407.72Zm49.3-33.09c.87-1,1.41-1.49,1.54-1.43C418.62,374,417.79,374.75,417.7,374.63ZM345,413.91c-.44.08-.88.17-1.21.21s-.55,0-.53,0C344.27,414,345.16,413.75,345,413.91Zm25.67-248.12c.12.26-1.45-.45-2.33-.78a15.32,15.32,0,0,1-2.93-1.17C367.5,164.48,368.55,165,370.69,165.79Zm-43.8,249.92a5.68,5.68,0,0,1,1.75-.11A5.68,5.68,0,0,1,326.89,415.71Zm-16.45-.62c1.05.48-4.25-.38,0,0Zm66.35-246.65a10.29,10.29,0,0,1-1.94-.8c-.81-.33-2-.72-2.59-1A24.07,24.07,0,0,1,376.79,168.44Zm29.06,18.62c-.83-.64.2.28-.11.13a37.45,37.45,0,0,0-2.78-2.52c-1.29-1-2.86-2.16-4.54-3.41-1.42-1-2.86-2-3.72-2.6-.24-.16-1-.55-1.21-.71-.6-.42-.84-.69-1.4-1l-1.5-.9-2.44-1.5-.72-.44-.71-.38-1.26-.67a30.83,30.83,0,0,1-2.81-1.42,3.93,3.93,0,0,0-.57-.41c-.78-.39-1.35-.58-1.91-.88s-.91-.48-1.54-.83c-.34-.19-1.45-.74-1.21-.72A24.32,24.32,0,0,1,380,170c.44.22,1.32.59,1.28.57.25.13.54.36.59.38a9.31,9.31,0,0,0,1,.42c.41.21,2.43,1.42,3,1.74s1.24.57,1.88.94c-.16-.1,1.39.85,1.2.72.27.19.19.22.55.44.91.54,1.85,1,2.74,1.56.58.35.86.65,1.41,1.05l1.18.74c.47.32.48.38.85.62s.31.16.6.36c.51.37,1.59,1,2.65,1.86l3,2.23a9,9,0,0,0,.9.56c.48.33.55.52,1.06.91.25.2.32.16.86.6,0,0,0,.1.22.29.53.42.55.42.84.63.79.58.92.8,1.87,1.59.73.64,1.23,1.05,2.11,1.83l1.83,1.72c.32.31.67.62,1,.94l1,1c.57.56,1.05,1,1.51,1.45s1,1.06,1.43,1.53c1.23,1.3,2.31,2.44,3.55,3.86.32.37.55.72.64.83s.47.45.72.76c.68.81,1.16,1.48,1.52,1.91.54.63.76.77,1.21,1.27s.78.93,1.11,1.35c.47.6.86,1,1.11,1.35.51.66,1,1.41,1.59,2.19l.84,1.17c.28.39.53.8.8,1.19.55.81,1.37,1.83,2,2.88,0,.07.1.3.12.33.35.55.72.92,1,1.44s.38.84.62,1.26c.54,1,1.15,2,1.82,3.06l.51.83.48.88,1,1.87c.23.44.42.88.46.94.14.26.3.46.53.9s.51,1.1.72,1.59.29.52.49.93.28.69.56,1.27.72,1.45,1.08,2.19c.27.56.29.68.54,1.28s.33.58.61,1.26c.12.27.25.76.5,1.3-.12.14-.46-.93-.74-1.58l-.76-1.57c-.76-1.55-1.42-3.1-2.2-4.73-.31-.74-1.64-3-1.85-3.35a10.61,10.61,0,0,1-1-1.82c-.55-1.08-1.27-2.15-1.78-3s-1.38-2.34-2.33-3.88-2.05-3-2.73-4c-.39-.54-.53-.89-.76-1.17-.5-.63-.95-1-1.38-1.57-.72-.92-1.37-2-2.08-2.79.07,0,.61.73.55.46-.41-.53-.91-1.19-.94-1-.38-.58-1.19-1.56-2.14-2.68L421,202.23c-.5-.6-1.05-1.15-1.53-1.71-.18-.2-.54-.58-.7-.77a2.06,2.06,0,0,1-.17-.31,24.44,24.44,0,0,1-1.94-2c-.28-.51.37.26-.68-.8-.37-.38-.71-.82-.92-1-.43-.43-.57-.51-1-1s-1.19-1.21-1.79-1.84-1.23-1.16-1.69-1.58c-.83-.76-1.75-1.54-2.59-2.28A26.79,26.79,0,0,1,405.85,187.06Zm-67.34-29.43a29,29,0,0,1-4.89-.4,20.07,20.07,0,0,1,3.15.25A9.87,9.87,0,0,1,338.51,157.63Zm9.69,1.53c0,.31-1.83-.29-3.48-.44C344.29,158.39,346.56,158.77,348.2,159.16Zm16.58,4.44c.17.28-1.91-.48-3-.83-.44-.13-1-.22-1.36-.34-.64-.2-1.19-.47-2-.69-1.45-.42-3.12-.81-4.41-1.16-.55-.16-.64-.19-.65-.26.27.06.35.05.69.14a3.94,3.94,0,0,1,.65.26c.47.12,1.16.23,1.72.36l2.05.53c.72.19,1.44.45,2.18.68C362.08,162.77,363.54,163.24,364.78,163.6Zm72.6,183.56A22.17,22.17,0,0,1,438.5,345,10.25,10.25,0,0,1,437.38,347.16Zm-2,3.68c-.35.36.91-1.88,1-1.86C436.69,348.61,435.42,350.87,435.36,350.84Zm-9.86,14.39c.5-.68.52-.56,1.09-1.37-.29,0-1.64,2.17-1.91,2.05a3.05,3.05,0,0,1,.94-1c.43-.54.71-1.06,1-1.41a2.88,2.88,0,0,1,.8-.72c.3-.4.64-.86.95-1.26s.55-.78.72-1a6.65,6.65,0,0,1-.63,1l-1,1.27C426.78,363.74,425.57,365.6,425.5,365.23Zm-122.37,49a5.74,5.74,0,0,1,1.74.24A5.7,5.7,0,0,1,303.13,414.27Zm-3.12-.46a8.59,8.59,0,0,1-1.72-.34,21.46,21.46,0,0,1,2.44.29C300.57,413.8,299.64,413.62,300,413.81Zm-3.78-.73,0-.12,1.37.29A3.3,3.3,0,0,1,296.23,413.08Zm-9.2-2.23c-.8-.19-1.57-.46-2.35-.7-.05-.1.65.05,1.3.24S287.26,410.77,287,410.85ZM341.28,158a16,16,0,0,1,3.11.54C343,158.38,342.63,158.23,341.28,158ZM269.6,404.51l-2.53-1.23c-.84-.4-1.67-.79-2.5-1.24a13.13,13.13,0,0,1,2.24,1c.64.29,1.32.6,1.85.87S269.58,404.36,269.6,404.51Zm-27.77-16.8c.55.28,3.38,2.4,4,2.86l-.08.1C245,390.15,242.87,388.57,241.83,387.71Zm38.55,21a29.78,29.78,0,0,1,4,1.23c-.12.12-1.2-.34-1.69-.49A18.26,18.26,0,0,1,280.38,408.66Zm-8.81-3.41a6.93,6.93,0,0,1,1.65.6l1.26.54c.41.15.77.27,1,.34l-.05.12A37.7,37.7,0,0,1,271.57,405.25Zm-10.11-4.81c-.43-.13-2.39-1.24-2.11-1.24A12.66,12.66,0,0,1,261.46,400.44ZM250.64,394c.19-.13,1.73,1.12,2.68,1.64,1.12.67,2.27,1.25,3,1.81.52.3.55.37.56.44A65.55,65.55,0,0,1,250.64,394Zm-3.46-2.37c.77.38,1.24.79,2.65,1.69a3.11,3.11,0,0,0,.54.45A19.77,19.77,0,0,1,247.18,391.65Zm184-34.37a18.33,18.33,0,0,1-1.14,1.76A8,8,0,0,1,431.19,357.28ZM444,331.8l1.3-3.49.92-2.73c.19-.11-.28,1-.48,1.67s-.61,1.87-1,2.8A5.91,5.91,0,0,1,444,331.8Zm-3.88,8.94c.17-.32.43-.86.62-1.3s.33-.74.34-.56C440.92,339.44,440.18,340.88,440.1,340.74Zm7.82-87.83a14.33,14.33,0,0,1,.42,2C448.12,254.71,447.73,252.74,447.92,252.91Zm1.62,7.47c-.38-2.13-.76-3.18-1-4.41a16.53,16.53,0,0,1,.69,2.26A6.27,6.27,0,0,1,449.54,260.38Zm-11.86,85.37c-.15,0-.21-.06.3-1C438.36,344.11,438.19,344.84,437.68,345.75Zm-1.34,2.44c-.24,0,.42-1.12.76-1.56A6.59,6.59,0,0,1,436.34,348.19Zm10.94-97.27c-.14.28-1-2.61-1.23-3.62C446.36,247.4,446.72,249.15,447.28,250.92Zm4.58,38.44,0-2.9c0-.94,0-1.89,0-3,0-1.58,0-3.48-.23-5.54a5.12,5.12,0,0,0-.1-.69,30.46,30.46,0,0,1-.35-3.27c-.05-.73-.1-1.48-.12-2.12s-.1-1.19-.1-1.51c-.22-1-.37-2.13-.5-3.28l-.2-1.76c-.09-.6-.2-1.2-.31-1.82a12.69,12.69,0,0,1,.47,2l.33,2.42c.16,1.17.49,2.7.68,4.46.07.72,0,.93.08,1.39.11,1.17.25,2.71.4,4.31s.11,3.27.13,4.69c0,1.05,0,2.05,0,3.12,0,.45,0,.57,0,.7A15.1,15.1,0,0,1,451.86,289.36ZM432.17,355a25.66,25.66,0,0,1-1.75,2.59,7.54,7.54,0,0,1,.82-1.36C431.69,355.62,432.09,355,432.17,355Zm11.89-113.65c0,.69-1-2.16-.76-1.94C443.62,240.19,443.72,240.37,444.06,241.37Zm8,50.42c0,.68-.15.77-.24,1.73s-.14,2.31-.21,3.2-.18,1.32-.27.58a10,10,0,0,0,.13-1.38c.07-.75.12-.78.17-1.38.09-1.15.1-2.36.25-3.45C452,290.8,452,291.64,452.05,291.79Zm-23.92,68.89c.71-1,1.82-2.81,1.86-2.52C429.49,359,428.07,361.21,428.13,360.68Zm18.74-38.16a8.86,8.86,0,0,1-.85,2.28C446.26,323.88,446.75,322.24,446.87,322.52Zm-4.94,13c.72-1.51,1.44-3.21,2-4.8.47-1.31.68-2.08,1.07-3.29.19-.26.14.13,0,.77s-.52,1.51-.78,2.24c-.35,1-1,2.71-1.25,3.24a12.44,12.44,0,0,1-.66,1.23C442.48,334.49,441.88,335.91,441.93,335.48Zm.09.41a17.89,17.89,0,0,0-1.09,2.55c-.17.14-.61,1.2-.64.86a9,9,0,0,1,.76-1.56,12.37,12.37,0,0,1,.61-1.63C441.67,336.39,441.94,335.85,442,335.89Zm-18.23,30.65c-.87,1.06-1.38,1.35-.13-.1Zm14.57-23.17c.24-.39.59-1.13.83-1.53C439.22,342.15,438.42,343.55,438.36,343.37Zm-15.81,24.4c.24.06-1.62,2.15-1.77,2.14C420.78,369.81,421.91,368.6,422.55,367.77Zm28-63.25c.17-.69.24-2.39.36-2a8.67,8.67,0,0,1-.12,1.28C450.67,304.21,450.58,304.58,450.52,304.52Zm-2,11.25c-.19.2.11-1.23.28-1.72A5.08,5.08,0,0,1,448.47,315.77ZM285.39,163a8.46,8.46,0,0,1-1.67.5A4.8,4.8,0,0,1,285.39,163ZM450.15,307.27c-.15.76-.3,1.7-.46,2.62s-.4,1.81-.58,2.47a14.72,14.72,0,0,1,.45-2.73A9.16,9.16,0,0,1,450.15,307.27ZM433.74,351.9c-.52.82-1.18,1.68-.91,1.08C433.48,351.87,434.05,351.21,433.74,351.9ZM409,381.71a19.28,19.28,0,0,1,1.84-1.78c.8-.68,1.48-1.34,1.53-1.22a11.54,11.54,0,0,1-2.09,1.84A14.29,14.29,0,0,1,409,381.71ZM297.19,160.07c.39-.07.2,0,0,0-.39.21,1.11-.18.72,0a7.27,7.27,0,0,1-2.09.23A9.07,9.07,0,0,0,297.19,160.07ZM429.71,358c0-.17.89-1.32.45-1,.5-.75.85-1.22.88-1.07C430.14,357.16,430.27,357.34,429.71,358ZM250.36,179.65c-.61.82-2.6,1.55,0,0ZM402.1,387.49l-.1-.13c.66-.55.87-.62,1.39-1A6.6,6.6,0,0,1,402.1,387.49Zm-6,4.13c.57-.33,1.67-1.24,1.47-.92C396.92,391.24,396.15,391.78,396.1,391.62ZM392.68,394a8.24,8.24,0,0,1,2.31-1.54C394.21,393,393.51,393.5,392.68,394ZM370.5,167.19c-.09.14-1.2-.41-1.63-.57s-1-.35-1.3-.48c-.06,0-.3-.2-.3-.2-.49-.19-1.33-.45-2-.68s-1.53-.55-2.29-.79l-2.31-.76a11.23,11.23,0,0,1,1.71.36c.51.15,1.09.35,1.7.56s1.24.5,1.89.75c.24.1.36.08.66.2.08,0,.27.19.3.2.57.22.72.2,1.32.44C369.12,166.57,369.83,166.88,370.5,167.19Zm53.8,198c-.83.94-3.11,3.76-3.56,4.26,0-.41,2.54-3.13,3.39-4.38ZM410.94,379.7c-.22.05,0-.23.43-.6s.88-.87,1.23-1.18A13.69,13.69,0,0,1,410.94,379.7Zm21.39-26.22c-.3.11.77-1.78,1.48-2.74C434,350.79,432.83,352.56,432.33,353.48Zm-6.44,9.43-1,1.38C424.52,364.46,426,362.54,425.89,362.91ZM406.53,383.6c0-.05.27-.32.45-.55a9.77,9.77,0,0,1,1.74-1.68A11.45,11.45,0,0,1,406.53,383.6ZM383.37,173.21a12.1,12.1,0,0,1-1.83-.89l-2.2-1.13a7.44,7.44,0,0,1,1.78.73C381.92,172.33,382.78,172.87,383.37,173.21Zm29.42,204.41,1-1C414.07,376.56,412.7,377.93,412.79,377.62Zm-7.89,7.26c-1,.77-2.54,1.93-2,1.34.83-.66,1.53-1.2,2.19-1.68C405.23,384.51,405,384.77,404.9,384.88Zm-114-222.83c-1,.28-1,.17-2,.45A6.34,6.34,0,0,1,290.88,162.05Zm14.95-3c1.69-.18-.1.32-1,.31C304.71,159.28,306.15,159.15,305.83,159.06ZM379.05,171a6.06,6.06,0,0,1-1.58-.72A5.69,5.69,0,0,1,379.05,171ZM430.6,356.08a10.34,10.34,0,0,1-1.69,2.19,4.62,4.62,0,0,1,.81-1.12C430,356.76,430.8,355.5,430.6,356.08ZM372,404.54c-.21-.13,1.43-.66,2.23-1A16.37,16.37,0,0,1,372,404.54Zm28.77-16.48c1.24-1.35-2,1.51-3.12,2.19a4.05,4.05,0,0,1,.79-.68c-.18,0-1.29.82-.68.24,1.36-1.06,2-1.32,2.88-1.92.28-.2.59-.46.92-.73a9.55,9.55,0,0,1,1-.75c-.23.25-.46.49-.73.76S401.22,387.72,400.79,388.06Zm17.27-15.92c-.22.08,0-.21.61-.85-.63.54-1.58,1.61-2.48,2.6l-.65.72-.63.59a4.16,4.16,0,0,1-.92.69,15.22,15.22,0,0,1,1.4-1.39c.44-.43.87-.83,1.29-1.28s.91-1.09,1.83-2.07c-.05.05.16-.07.27-.23s.53-.57,1.05-1.16,1.14-1.33,1.63-2c.46-.32-.73.92-.56.87,0,.16,1.2-1.51,1-1a20.79,20.79,0,0,1-2.78,3.08A6,6,0,0,1,418.06,372.14Zm-57.15,36.32a4.24,4.24,0,0,1-1,.21c-.46.12-1.49.55-1.35.32A8.34,8.34,0,0,1,360.91,408.46ZM333.85,158.7c-.55-.06-.61,0-1,0a6.4,6.4,0,0,1-.69-.12c-.4,0-2.09,0-2.07-.17C330.79,158.38,334.12,158.5,333.85,158.7Zm8.58,1.08-2.05-.33C340.38,159.32,342.74,159.64,342.43,159.78Zm-65.68,6.93c-.41.18-1.38.6-2.23.94C273.73,167.67,276.88,166.39,276.75,166.71Zm68.77-6.52c1,.13,1.85.37,1.68.45a8.35,8.35,0,0,1-1.13-.21C345.74,160.35,345.5,160.25,345.52,160.19Zm7.12,1.49c.68.32,1.49.4,2.32.7-.19,0-.37,0-.37,0A6,6,0,0,1,352.64,161.68ZM282,164.91c-.84.29-1.68.58-1.67.45C280.83,165.1,282.21,164.66,282,164.91Zm73.65-2.35,1.67.44C357.78,163.25,355.08,162.55,355.63,162.56Zm38.24,230.09a25.25,25.25,0,0,1,2.83-2A26.18,26.18,0,0,1,393.87,392.65Zm19.69-16.21c-1.71,2-1.16.64,0,0Zm-30.42,22.5c-.28,0,1-.7,1.49-.88A6.87,6.87,0,0,1,383.14,398.94Zm-6.81,3.37c-.48.18-.55.09-1,.26.53-.27,3.71-1.78,4.7-2.17.19.08-1.38.71-2.15,1.1S377,402,376.33,402.31Zm-41.22,11.11c-.55-.1,2.29-.39,2.06-.23A17.51,17.51,0,0,1,335.11,413.42Zm76.46-35.07a7.45,7.45,0,0,1-.93.85c-.23.17-.37.24-.44.22C411.15,378.54,411.45,378.29,411.57,378.35Zm.7-183.41a10.55,10.55,0,0,1-1.71-1.7A7.26,7.26,0,0,1,412.27,194.94Zm2.25,2.13a10.71,10.71,0,0,1-2.22-2.16A21.07,21.07,0,0,1,414.52,197.07Zm-43.7,207.29c1.36-.55,3.28-1.37,4.16-1.69.14.13-1.8.92-2.18,1.06C372.17,404,370.49,404.62,370.82,404.36Zm-11.36,4.09a15.35,15.35,0,0,1-3,.85,5,5,0,0,1,1.3-.47c.09,0,0,.13,0,.12C358.4,408.84,359.37,408.31,359.46,408.45Zm-10,2.55c.78-.1,2.61-.7,2.37-.46-.25.09-.92.27-1.48.4S349.28,411.11,349.42,411ZM293.65,161.75c.79-.18,1.57-.39,2.36-.53l0,.08c-.79.14-1.57.35-2.36.54Zm111.5,26.68a15.68,15.68,0,0,1,1.31,1.12c0,.2-.24.12-1.2-.71.12,0,.51.33.61.34S404.64,188.2,405.15,188.43Zm20,21.32c-.6-.85-1.14-1.71-1.77-2.54A7.62,7.62,0,0,1,425.1,209.75Zm-54.87,195a20.33,20.33,0,0,1-1.94.73,22.59,22.59,0,0,1,2.21-1C370.35,404.59,370.19,404.69,370.23,404.74Zm-50.66,9c.65,0,2.08,0,1.73.1C320.46,413.85,319.52,413.89,319.57,413.73Zm-3.1-.1c.56,0,1,0,1.26.05s.43,0,.46.11A4.54,4.54,0,0,1,316.47,413.63Zm100.6-213.75.93,1C418.06,201.2,416.77,199.79,417.07,199.88Zm2.09,2.29a9.78,9.78,0,0,1,1,1.24,2.43,2.43,0,0,1,.41.7,10.21,10.21,0,0,1-1-1.16C419.34,202.56,419.12,202.24,419.16,202.17ZM310.61,413.31l-1.72-.19C308.57,412.91,311,413.18,310.61,413.31ZM427.26,212.43l-.13.1a24,24,0,0,1-1.41-1.95A10.14,10.14,0,0,1,427.26,212.43Zm2.49,4.13a6.84,6.84,0,0,1-.85-1.49,13.62,13.62,0,0,1-1.16-1.72c0-.32.75,1,1.19,1.69l1.2,1.75c.24.34.47.69.65,1a4.5,4.5,0,0,1,.35.75c.21.39-.06-.13-.41-.73S429.87,216.53,429.75,216.56Zm14.34,110.15a27.56,27.56,0,0,1,1.22-3.94A28.49,28.49,0,0,1,444.09,326.71Zm-23.23,41c-.08-.3,1.65-2.09,2.34-3l2.37-3.19c.45-.61.93-1.22,1.37-1.86l1.28-1.91c.39-.59.94-1.3,1.38-2q.34-.51.6-1c.17-.31.31-.59.45-.82.34-.54.78-1.14,1.15-1.71.83-1.3,1.72-2.7,2.49-4.2l1.21-2.23c.39-.75.83-1.48,1.18-2.24l1.84-3.68c.56-1.09,1-2.44,1.5-3.46.33-.76.68-1.41,1-2.17.44-.92.79-1.92,1.15-2.9s.72-2,1.11-2.85l.11,0a15.24,15.24,0,0,1-.88,2.23c-.81,2.24-1.68,4.3-2.59,6.37-.67,1.61-1.52,3.3-2.33,5-.37.76-.74,1.5-1.1,2.21l-1.14,2.05c-.4.73-.57,1.14-.95,1.83-.24.42-.51.87-.78,1.32L432.8,351c-.36.59-.64,1.13-1,1.78s-.68,1-.93,1.45c-.4.69-.81,1.41-1.24,2.05s-.45.58-.81,1.12-.31.54-.55.88c-.6.85-1.18,1.67-1.83,2.48l-2.56,3.43c-.24.31-.46.63-.71.94l-.76.9C421.86,366.58,421.36,367.17,420.86,367.72Zm-64.42,41.46c-.28.18-2.42.65-2,.42A18.37,18.37,0,0,1,356.44,409.18ZM347,411.33l0-.16a27.43,27.43,0,0,1,3.41-.55C349.1,410.92,347.9,411.11,347,411.33ZM437.42,230c-.46-.85-.31-.84-.72-1.56C436.85,228.35,437.7,230.18,437.42,230Zm-112,183.45c1.24,0,1.66-.16,2.41-.1-1.76.25.73,0,.7.19A9.57,9.57,0,0,1,325.43,413.4Zm-38.81-4.86c.87,0,3.41.95,4.68,1.16a3.37,3.37,0,0,0,.66.22A45.12,45.12,0,0,1,286.62,408.54Zm-15.15-5.68a13,13,0,0,1,2.2,1A7,7,0,0,1,271.47,402.86Zm4.75,2a2.33,2.33,0,0,1-.78-.24c-.41-.15-.87-.38-1.15-.48a2.17,2.17,0,0,1,.83.26C275.55,404.58,276,404.77,276.22,404.87Zm-10.39-4.57c.39.32-1.09-.55-1.84-.94l-2.42-1.31a10.32,10.32,0,0,1,2,1C264.4,399.52,265.29,400,265.83,400.3Zm-7.24-4a10.36,10.36,0,0,1,2.38,1.39C260,397.19,258.63,396.58,258.59,396.33ZM238.9,382.55a18,18,0,0,0-2.25-2.12c-.05-.27.91.55,1.68,1.29S239.74,383.07,238.9,382.55ZM424.7,209.63c0,.11-1.42-1.53-1.27-1.63C423.71,208.3,424.19,209,424.7,209.63Zm.58.85a9.87,9.87,0,0,1,1.37,2C425.76,211.34,425.92,211.32,425.28,210.48ZM242.27,385c.29.28.86.74,1.32,1.13s.86.68.73.7c-1-.75-1.33-.91-1.6-1.3C242.64,385.35,242.09,384.91,242.27,385Zm-15.72-14.8c.11-.07,1.74,1.71,1.36,1.55A11.68,11.68,0,0,1,226.55,370.15Zm205.26-150c.62,1,1,1.65,1.38,2.37C432.88,222.13,431.54,220.08,431.81,220.13Zm-116,193.08c-.71-.07-2.39-.08-2.06-.21C314.45,413.07,316.13,413.08,315.8,413.21ZM289,408.93c-1.29-.37-2.23-.62-3.14-.95l-3.08-1a11.1,11.1,0,0,1,2.31.69c1,.29,2,.47,3.66.93C289.05,408.74,288.74,408.7,289,408.93Zm-43.29-21.16c-.19-.35,1.07.75,1.68,1.2.39.29.78.55,1.16.81a12.48,12.48,0,0,1,1.09.77A28.85,28.85,0,0,1,245.72,387.77Zm-22.93-22.08a12.35,12.35,0,0,1,1.78,2.09C224.6,368.05,223,366,222.79,365.69Zm-3.27-4.4c.63.87,1.53,2,1.81,2.5C221.19,363.82,219.13,361.09,219.52,361.29Zm228.91-94.76c-.12-.39-.16-.38-.17,0,.16,1.3.3,2,.43,3,.05.5.05.9.11,1.36l.15,1.14.11,1.19c.08.83.17,1.72.24,2.76.12,1.26.17,0,.23.66s0,.65-.07.69a8.46,8.46,0,0,0,.18,1c0,.52,0,.62,0,1,0,1.07.11,1.23.09,2.38a9.11,9.11,0,0,1,0,1c0,.24,0,1.17,0,2.21s-.07,2.19-.06,2.9c0,1.29.1,1.4.13,2.73-.07.14-.08,1.19-.17,1.69,0,.09-.08-.1-.09,0-.07.61-.09,1.39-.17,2,0,.16-.09.22-.1.34-.12.88-.21,2.27-.34,3.72,0,.57,0,.91-.06,1.7-.12-.17-.22.41-.33,1-.12.75-.1,1.54-.23,2.37s-.37,1.43-.55,2.32c-.14.71-.28,1.86-.49,3-.1.67-.35,1.37-.48,2-.24,1-.41,2-.57,2.66-.1.43-.31,1-.36,1.3a16.34,16.34,0,0,1-.72,3c-.24.28-.13.31-.39,1.3-.13.48-.55,1.59-.39,1.65-.29,1.1-.3.57-.55,1.25-.2.51-.23.93-.48,1.62a4.63,4.63,0,0,0-.38.95c-.31,1.09.07.06-.05.69-.3.8-.36.85-.59,1.59a12.39,12.39,0,0,1-.78,2.24c-.34.34-.05.11-.52,1.26-.13.33-.51.85-.78,1.51a19.64,19.64,0,0,1-1,2.59,17.65,17.65,0,0,1-1.17,2.37l-.6,1.4c-.2.42-.34.74-.29.79-.46.83.11-.49-.3.23-.73,1.56-1,2.32-2,4.28-.76,1.29-1.82,2.64-2,3.54-.41.46-.84,1.5-1.4,2.31-.06.1-.56.69-.81,1.09s-.48.81-.71,1.15l-.9,1.34-.57.85-.62.89c-.38.56-.7,1.19-1.06,1.71s-.45.51-.83,1.07c-.15.23-.53.93-.64.79-.46.62-.55.85-1,1.39s-.53.58-.87,1c-.75,1-1,1.37-1.62,2.16-.09.1-.34.46-.41.54s0-.11-.06-.06c-.49.57-1.43,1.65-1.75,2.06s-.8,1.09-1.23,1.61-.63.62-1.18,1.2-.56.68-.87,1c-.49.53-.9.86-1.2,1.18l-1.08,1.2-.7.77-.75.74c-.4.37-.63.53-1,.89s-.9.93-1.43,1.42c-.24.22-.45.35-.77.65-.53.54-1.44,1.27-2,1.8-.38.34-.42.45-.72.7s-.67.52-1,.84-1,.89-1.57,1.37l-1.79,1.43-1.87,1.43c-.62.51-1.44,1.15-2.13,1.63-.48.34-.92.59-1.4.93s-1.48,1.17-2.43,1.79c-.31.19-.84.47-1.17.67-1,.63-2,1.31-2.94,1.95a18.38,18.38,0,0,1-2.79,1.54,19,19,0,0,1,1.9-1.17l2.09-1.3,1.67-1.12c.56-.35.6-.31.88-.49a3,3,0,0,0,.54-.4l1.39-.93c.26-.19.56-.48,1.06-.84s1.22-.81,1.94-1.32,1.87-1.52,2.9-2.34,2-1.59,2.61-2.05c.16-.12-.39.41-.48.47,1-.81,1.76-1.65,2.72-2.5.37-.32.75-.51,1.09-.8s.4-.42.72-.71c.64-.59,2.9-2.75,3.88-3.72.21-.21.33-.39.68-.74.12-.13.43-.35.51-.44l.68-.74c.32-.33.73-.69,1-.94s.54-.65.88-1c.92-.95,2.05-2.25,2.91-3.26.56-.67,1.2-1.47,1.72-2.07.37-.41.76-.86,1.09-1.28.55-.71,1.09-1.51,1.59-2.18.29-.4,1-1.23,1.54-2s1.11-1.57,1.26-1.74a7.39,7.39,0,0,0,1-1.37c.34-.5.68-.85.82-1.06.33-.48.16-.35.65-1.19-.05.09.11-.08.21-.26a1.06,1.06,0,0,1,.14-.31c.31-.5.58-.81.95-1.4s1-1.56,1.41-2.29.75-1.4,1-1.78c.55-.94,1.1-1.63,1.64-2.56a20.84,20.84,0,0,0,1-2.12c.95-2,2.26-4.23,3.1-6.36a10.12,10.12,0,0,0,.59-1.58,17.48,17.48,0,0,0,.95-1.9c.33-.8.69-1.73,1.07-2.72s.79-2,1.15-3.06.7-2.06,1-3c.3-.45-.33,1.1-.19,1,.2-.31.66-2,1-2.88,0-.55-.65,2.11-.67,1.56.29-.84.13-.73.47-1.62.13-.36.17-.11.32-.61.48-1.65,1-3.74,1.47-5.55.15-.57.3-1,.44-1.64s.26-1.25.43-2,.4-1.52.58-2.3c.28-1.5.49-3.1.77-4.67.25-1.28.49-2.66.65-4,.08-.69.24-2.42.41-3.7,0-.36.14-.9.17-1.34.11-1.47.19-3,.27-4.49s0-3,.08-4.31c0-.54.11-.7.13-1s0-.73.05-1.11,0-.78-.05-1.18c0-.8-.09-1.63-.12-2.45,0-1.09.07-1.57-.08-3.4,0-.4-.16-1.43-.16-1.34-.05-.74,0-1.1-.07-1.7s-.14-1.13-.19-1.69c-.05-.92-.16-2-.29-3,0-.44-.14-.92-.19-1.35a46.6,46.6,0,0,0-.69-5.05c-.12-.6-.18-.69-.3-1.33s-.14-1-.22-1.34c-.15-.75-.27-1.26-.38-1.7a7.56,7.56,0,0,1-.26-1.29c-.06-.45-.32-1.39-.61-2.66s-.49-2.49-.94-4c-.22-.75-.5-1.52-.73-2.27-.36-1.23-.62-2.39-1.06-3.6-.36-1-.82-2.23-1.15-3.21s-.5-1.73-.85-2.59l-1.79-4.43c-.11-.27-.25-.46-.46-.91s-.26-.69-.51-1.27-1.05-2.09-1.17-2.47a4,4,0,0,0-.18-.67,10.09,10.09,0,0,0-.47-.93c-.17-.29-.35-.57-.5-.88a25.9,25.9,0,0,0-1.51-3.06c.39.17,1.51,2.84,1.81,2.91.6,1,1,2.12,1.33,2.78s.3.46.66,1.2c.55,1.07.06.37.29,1,.13.34.57,1.15.74,1.54.09.17.25.93.55,1.63s.1-.25.51.89,0,.21,0,.38l.79,1.9c.48,1-.67-1.87-.07-.71a27.45,27.45,0,0,1,1.14,2.86c.14.46,0,.4.11.69s.25.76.31,1c.12.46.43,1.52.8,2.67l.29.86.26.86a15.12,15.12,0,0,0,.52,1.47s-.22-1.08,0-.36c.06.2.19.89.35,1.32.09.23.05,0,.18.31l.34,1a5,5,0,0,1,.21,1c.17.56.38,1,.44,1.3.16.64.12.79.25,1.35s.26.71.41,1.31,0,.48.32,1.68c.12.5.27,1,.39,1.56l.31,1.62a17.92,17.92,0,0,1,.37,2.87C448.07,264.79,448.29,265.58,448.43,266.53Zm-6.25,64.23A25,25,0,0,1,441,333.6C441.05,333.47,442.15,330.25,442.18,330.76ZM270.27,402.17a17.68,17.68,0,0,1-2.16-1.05,8.05,8.05,0,0,1,1.29.53C269.94,401.92,270.43,402.13,270.27,402.17Zm161.39-50.3c.43-.65,1.33-2.32,1.32-2C432.75,350.36,431.63,352.23,431.66,351.87Zm12.41-104c-.34-1.21-.78-2.38-1.2-3.56,0-.39.28.55.42.94s.41,1,.57,1.62S444.15,248,444.07,247.92Zm3.26,64.77-.14.67c0-.07-.07.12-.11.32H447c.07-.29.05-.32,0-.35l.14-.66c0,.07.07-.13.11-.33l.08,0C447.3,312.63,447.31,312.67,447.33,312.69Zm-17.39,41.74c.44-.73.61-.87,1-1.42C430.79,353.42,429.91,354.86,429.94,354.43Zm16.44-37.75c-.12.12,0-.38.1-1s.24-1.24.29-1.41A8.79,8.79,0,0,1,446.38,316.68Zm-20.7,43.94c.09-.17.41-.58.73-1l.86-1.21a21.5,21.5,0,0,1,2-2.78c-.5.83-.88,1.42-1.51,2.29-.26.36-.6.74-.64.8s-.34.6-.64,1.09S425.8,360.7,425.68,360.62Zm18.82-37.38c-.15.48-.13.13-.23.29a4.75,4.75,0,0,0-.24.64c0-.14.47-1.64.46-2,.34-.93.18-.34.26-.27a7.7,7.7,0,0,0,.3-1.34,33,33,0,0,0,.91-3.28,7.3,7.3,0,0,1-.19,1.36c-.15.66-.23.59-.43,1.29-.07.27-.2.85-.34,1.5S444.64,322.76,444.5,323.24Zm4.41-53-.29-2C448.69,268.28,449.1,270.41,448.91,270.25Zm-5.32,55.57c-.26.86-.46,1.4-.53,1.27C443.32,326.23,443.56,325.45,443.59,325.82ZM442.07,330c-.21.14.23-1,.6-2A8.08,8.08,0,0,1,442.07,330Zm-1.19,2.84c.11-.49.58-1.68.67-1.57C441.44,331.76,440.93,333.11,440.88,332.83Zm-1.4,3.48c-.23.57-.33.64-.57,1.24-.18.09.16-.72.56-1.62C439.6,335.83,439.47,336.19,439.48,336.31Zm-1.27,2.8c0,.34-.63,1.15-1,2.14C436.86,341.18,437.92,339.48,438.21,339.11Zm-5.31,10.32a6,6,0,0,1-.85,1.08c-.23.3-.66,1.12-.61.83.89-1.41,1.14-1.95,1.74-2.93C433.18,348.62,432.62,349.61,432.9,349.43Zm16.83-62.85c-.09-3.12.3-.89,0,0Zm-12.9,55.27c-.41.82-.79,1.64-1.21,2.45A8,8,0,0,1,436.83,341.85Zm-2.36,4.54-.65,1.2C433.5,347.87,434.56,345.83,434.47,346.39Zm-12.29,18.44c-.69.75-.55.45-.13-.12a23.43,23.43,0,0,1,1.45-1.88C423.13,363.43,422.37,364.47,422.18,364.83Zm-1.37,1.52a16.61,16.61,0,0,1-1.12,1.29C419.54,367.65,421.05,365.77,420.81,366.35Zm15.9-24.94a8.73,8.73,0,0,1,.79-1.88C437.66,339.51,437.14,340.75,436.71,341.41Zm-1,2.15c-.31.2.71-2,.75-1.53A9.85,9.85,0,0,1,435.67,343.56Zm-.71,1.16c.08-.17.27-.35.24-.26a3.83,3.83,0,0,1-.4.56c-.39.71-1.22,2.41-1.64,3-.23,0,.86-1.91,1.65-3.36C435.12,344.28,434.53,345.49,435,344.72ZM447,310.54c0-.7.5-2.58.72-4.36a7.25,7.25,0,0,1-.19,1.9l-.25,1.31ZM408.5,379.1c-.52.49-.69.58-1,.88,0-.11.37-.46,1-1Zm-5.75,4.8a6.77,6.77,0,0,1,1.63-1.23C404,383.08,402.76,384.07,402.75,383.9ZM396.33,389a11.71,11.71,0,0,1-1.36.86c-.42.24-.81.46-1.27.74a8.47,8.47,0,0,1,1.59-1.14C395.91,389.07,396.42,388.77,396.33,389Zm-8.65,5.46a17.32,17.32,0,0,0-2.09,1.16c0-.31,1.86-1.15,3.17-2C388.44,393.85,387.63,394.34,387.68,394.43Zm51.76-59.61c-.33.82-.58,1.33-.65,1.19C439.13,335.19,439.45,334.45,439.44,334.82Zm-62.37,65a19.35,19.35,0,0,1,1.81-.94c.18-.05.35-.09.36,0A13.28,13.28,0,0,1,377.07,399.85Zm-.58.37c-1,.47-1.23.51-1.88.79C374.86,400.8,376.82,399.91,376.49,400.22Zm-9.43,3.92c-1,.35-2.11.77-2,.56C365.94,404.35,367.27,403.85,367.06,404.14Zm-24.73,6.27c-2,.56-2.87.14,0,0Zm-4.71.74a5.32,5.32,0,0,1-1.52.12,2.61,2.61,0,0,1-.54-.14,16.32,16.32,0,0,1,1.67-.13C337.51,411,337.59,411.08,337.62,411.15ZM351,408.76c-.27-.1.48-.31,1.61-.57C352.89,408.29,352,408.52,351,408.76Zm-21.21,3c-.84,0-1.64.06-2.05,0C327.65,411.71,330.43,411.56,329.82,411.78Zm-16-.23c-.42.06-3.15-.11-2.7-.27C312.43,411.38,313.3,411.44,313.84,411.55Zm-5.41-.45c-.87-.1-1.74-.2-1.68-.31.61.07.72,0,1.36.11C308.36,411,308.46,411,308.43,411.1Zm-5-.83a15.91,15.91,0,0,1,2,.41C305,410.73,302.91,410.41,303.39,410.27Zm-23.95-6.16c.18,0,.35.06.36,0,2.16.91,4.1,1.3,4.75,1.82-.51-.06-.51-.19-.95-.35-.61-.21-1.37-.43-2.12-.68S280,404.36,279.44,404.11Zm-31.1-16.42c-.94-.73-.23-.35.12-.16s.83.68,1.28,1a3.84,3.84,0,0,1,.84.7C249.43,388.53,248.72,387.77,248.34,387.69ZM244,384.4a14.43,14.43,0,0,1,3,2.25C245.81,385.79,245.46,385.55,244,384.4Zm185.6-32.17a9.25,9.25,0,0,1,1-1.76A7.32,7.32,0,0,1,429.63,352.23Zm-44.81,41.35a4.38,4.38,0,0,1-.95.61c-.48.24-1,.52-1.37.72-.24,0,.39-.27.27-.2A11.08,11.08,0,0,1,384.82,393.58Z" transform="translate(0.6 -0.63)"/><path class="cls-3" d="M326.12,348.3a9.62,9.62,0,0,1-6.57-2.6c-15.82-14.8-37.45-19.95-48.94-21.7a6,6,0,0,1-4.93-7.28l.39-71.9a16.27,16.27,0,0,0-2.75-7.18c-1.17-1.95-2.27-3.79-1.41-5.83a4.9,4.9,0,0,1,3.58-2.62c7.69-1.87,46.85,16.11,60.81,22.7,6.65-4.09,36.79-22.24,54.87-26.72,2.65-.65,4.64-.41,6.1.76,2,1.59,1.92,4.13,1.89,5.5v.23l-1.93,86.82-1.8.61c-21,7.12-44.85,21.74-54.15,27.7A9.55,9.55,0,0,1,326.12,348.3ZM267.74,234.42l.26.44a21.33,21.33,0,0,1,3.52,9.67v.11l-.39,72.85-.12.39a.59.59,0,0,0,.06.52.46.46,0,0,0,.37.24c12.11,1.85,34.95,7.31,51.84,23.11a4.14,4.14,0,0,0,5,.48c9.2-5.9,32.47-20.14,53.54-27.64l1.85-83.31a9.1,9.1,0,0,0,0-1,6,6,0,0,0-1.22.2h0c-19.13,4.74-54.2,26.61-54.55,26.83l-1.27.79-1.35-.64C301.37,246.07,274.34,234.85,267.74,234.42Z" transform="translate(0.6 -0.63)"/><polygon class="cls-3" points="326.48 253.94 324.05 253.91 321.64 344.88 327.09 344.95 326.48 253.94"/><path class="cls-3" d="M367.52,297.51A157.71,157.71,0,0,0,336,315.72c-1,.72-2.48,1.89-1.74,2.9h0c.73,1,1.89.23,2.91-.48a154.88,154.88,0,0,1,32.47-16.5,2.15,2.15,0,0,0,1.23-3h0A2.68,2.68,0,0,0,367.52,297.51Z" transform="translate(0.6 -0.63)"/><path class="cls-3" d="M359.84,281.16a117.25,117.25,0,0,0-28,13c-.93.55-2.27,1.48-1.82,2.59h0c.45,1.1,1.41.37,2.41,0,9.86-3.84,18.47-7.49,28.5-11.14a2.29,2.29,0,0,0,1.41-2.73h0A2.12,2.12,0,0,0,359.84,281.16Z" transform="translate(0.6 -0.63)"/><path class="cls-3" d="M372.7,258.17h0c-12.19,2.88-26.57,11.44-36.9,16.51-1.13.51-2.74,1.38-2.19,2.43s1.72.37,2.93,0c11.69-3.49,25-11.25,36.8-14.55l1.47-1.28A2,2,0,0,0,372.7,258.17Z" transform="translate(0.6 -0.63)"/><path class="cls-3" d="M314.21,310.17c-10.12-7.69-20.4-10.76-30.8-12.72-1.14-.21-2.81-.05-3.12,1l0-.69c-.32,1.09.82,2.24,1.92,2.53a81.19,81.19,0,0,1,29.64,14.74,1.88,1.88,0,0,0,2.83-.75l.52-1.07A2.45,2.45,0,0,0,314.21,310.17Z" transform="translate(0.6 -0.63)"/><path class="cls-3" d="M311.81,280.93c-5.83-4.42-11.63-5.55-18.46-5.91-.66,0-1.62,0-1.8.59l0-.39c-.18.62.48,1.28,1.11,1.45a46.73,46.73,0,0,1,17.07,8.49c.56.43,2.05-1.23,2.35-1.84l.3-.62A1.41,1.41,0,0,0,311.81,280.93Z" transform="translate(0.6 -0.63)"/><path class="cls-3" d="M317.82,266.75c-9.67-7.48-19.18-9.4-30-9.84-1.08,0-2.63-.48-2.76.66v1.69c-.12,1.14,1,1.63,2.08,1.67,10.76.38,18.59,3.07,28.34,10l2.48-1C318.24,268.73,318.89,267.28,317.82,266.75Z" transform="translate(0.6 -0.63)"/><text class="cls-4" transform="translate(160.64 489.31) scale(1.04 1)">Sn<tspan class="cls-5" x="60.7" y="0">ua</tspan><tspan class="cls-6" x="119.77" y="0">c</tspan><tspan class="cls-5" x="145.63" y="0">a</tspan><tspan x="175.16" y="0">d</tspan><tspan class="cls-5" x="204.93" y="0">e</tspan><tspan x="231.76" y="0">m</tspan><tspan class="cls-7" x="275.86" y="0">i</tspan><tspan x="288.51" y="0">a</tspan></text></svg>